<?xml version="1.0" encoding="UTF-8"?>
<svg xmlns="http://www.w3.org/2000/svg" xmlns:xlink="http://www.w3.org/1999/xlink" width="32px" height="32px" viewBox="0 0 32 32" version="1.1">
<g id="surface1">
<path style=" stroke:none;fill-rule:nonzero;fill:rgb(0%,0%,0%);fill-opacity:1;" d="M 10.304688 6.367188 C 10.289062 6.40625 10.238281 6.515625 10.183594 6.613281 C 9.960938 7.054688 9.664062 7.898438 9.425781 8.746094 C 9.375 8.929688 9.3125 9.148438 9.289062 9.226562 C 9.246094 9.375 9.074219 10.191406 9.027344 10.492188 C 9.019531 10.582031 8.984375 10.785156 8.957031 10.945312 C 8.933594 11.105469 8.882812 11.570312 8.839844 11.972656 C 8.800781 12.375 8.742188 12.921875 8.714844 13.179688 C 8.652344 13.675781 8.675781 14.3125 8.773438 14.6875 L 8.824219 14.90625 L 8.664062 15.007812 C 8.4375 15.148438 8.226562 15.324219 8.109375 15.476562 C 7.996094 15.625 8.007812 15.675781 8.132812 15.542969 C 8.269531 15.390625 8.613281 15.109375 8.734375 15.046875 L 8.847656 14.984375 L 8.914062 15.175781 C 8.953125 15.28125 9.003906 15.375 9.039062 15.378906 C 9.074219 15.386719 9.082031 15.359375 9.050781 15.289062 C 8.738281 14.484375 8.972656 12.4375 9.507812 11.199219 C 9.648438 10.882812 9.871094 10.519531 9.980469 10.441406 C 10.050781 10.386719 10.058594 10.386719 10.171875 10.464844 C 10.230469 10.507812 10.351562 10.617188 10.429688 10.707031 C 10.703125 10.996094 11.617188 11.847656 12.445312 12.582031 C 12.660156 12.769531 12.949219 13.023438 13.089844 13.148438 C 13.417969 13.441406 13.585938 13.5625 13.628906 13.539062 C 13.667969 13.519531 13.515625 13.332031 13.441406 13.300781 C 13.363281 13.273438 13.695312 13.113281 14.226562 12.921875 C 14.707031 12.753906 15.445312 12.550781 15.492188 12.574219 C 15.511719 12.585938 15.425781 12.90625 15.328125 13.1875 C 15.289062 13.289062 15.226562 13.464844 15.191406 13.582031 C 15.140625 13.722656 15.082031 13.820312 14.996094 13.878906 C 14.808594 14.019531 14.925781 13.992188 15.191406 13.835938 C 15.875 13.4375 17.503906 12.859375 18.601562 12.621094 C 19.140625 12.503906 19.804688 12.394531 19.859375 12.414062 C 19.886719 12.425781 19.90625 12.726562 19.90625 13.183594 L 19.90625 13.9375 L 19.429688 14.0625 C 19.136719 14.136719 18.957031 14.199219 18.957031 14.222656 C 18.957031 14.253906 19.039062 14.242188 19.296875 14.167969 C 20.296875 13.890625 22.007812 13.664062 22.671875 13.71875 C 23.039062 13.753906 23.128906 13.765625 23.128906 13.789062 C 23.128906 13.828125 22.25 14.445312 21.800781 14.71875 C 21.273438 15.042969 21.105469 15.15625 21.171875 15.144531 C 21.226562 15.132812 22.0625 14.675781 22.273438 14.542969 C 22.339844 14.5 22.554688 14.386719 22.753906 14.289062 C 22.972656 14.179688 23.109375 14.089844 23.113281 14.054688 C 23.125 14 23.339844 13.867188 23.425781 13.867188 C 23.449219 13.867188 23.449219 13.851562 23.4375 13.839844 C 23.421875 13.824219 23.425781 13.8125 23.453125 13.8125 C 23.484375 13.8125 23.492188 13.792969 23.472656 13.773438 C 23.460938 13.75 23.464844 13.734375 23.488281 13.734375 C 23.511719 13.742188 23.605469 13.726562 23.695312 13.703125 C 23.785156 13.679688 23.949219 13.652344 24.050781 13.644531 C 24.15625 13.632812 24.273438 13.605469 24.3125 13.585938 C 24.414062 13.539062 25.449219 13.347656 25.902344 13.292969 C 26.492188 13.222656 26.519531 13.203125 26.042969 13.203125 C 24.824219 13.199219 23.195312 13.351562 21.585938 13.625 C 20.527344 13.808594 20.316406 13.839844 20.230469 13.839844 C 20.140625 13.839844 20.082031 13.742188 20.160156 13.71875 C 20.195312 13.710938 20.195312 13.703125 20.164062 13.691406 C 20.113281 13.679688 20.117188 13.257812 20.164062 13.230469 C 20.183594 13.222656 20.214844 13.230469 20.238281 13.253906 C 20.265625 13.273438 20.285156 13.285156 20.285156 13.273438 C 20.285156 13.261719 20.261719 13.230469 20.226562 13.199219 C 20.179688 13.160156 20.179688 13.128906 20.230469 13.054688 C 20.28125 12.980469 20.28125 12.949219 20.238281 12.917969 C 20.199219 12.894531 20.191406 12.84375 20.203125 12.785156 C 20.21875 12.734375 20.214844 12.6875 20.191406 12.679688 C 20.125 12.65625 20.195312 12.34375 20.28125 12.289062 C 20.449219 12.171875 20.785156 11.996094 20.871094 11.984375 C 20.917969 11.972656 21.042969 11.921875 21.136719 11.863281 C 21.265625 11.785156 21.351562 11.761719 21.460938 11.761719 C 21.574219 11.761719 21.621094 11.742188 21.667969 11.6875 C 21.703125 11.648438 21.835938 11.585938 21.96875 11.546875 C 22.097656 11.507812 22.402344 11.402344 22.640625 11.316406 C 22.882812 11.222656 23.199219 11.117188 23.351562 11.078125 C 23.753906 10.964844 23.5625 10.96875 23.042969 11.082031 C 21.960938 11.316406 20.316406 11.761719 19.3125 12.089844 C 18.890625 12.222656 17.742188 12.628906 17.558594 12.710938 C 17.484375 12.742188 17.203125 12.835938 16.941406 12.921875 C 16.683594 13.003906 16.351562 13.128906 16.207031 13.191406 C 15.875 13.34375 15.308594 13.652344 15.308594 13.683594 C 15.308594 13.695312 15.285156 13.707031 15.257812 13.707031 C 15.195312 13.707031 15.191406 13.710938 15.445312 13.160156 C 15.554688 12.925781 15.695312 12.671875 15.753906 12.601562 C 15.90625 12.414062 16.246094 12.207031 16.769531 11.96875 C 17.226562 11.769531 17.289062 11.734375 17.214844 11.734375 C 17.109375 11.734375 15.371094 12.347656 14.578125 12.667969 C 14.46875 12.710938 14.238281 12.800781 14.050781 12.871094 C 13.871094 12.9375 13.703125 13.003906 13.671875 13.023438 C 13.578125 13.085938 13.351562 13.171875 13.285156 13.171875 C 13.238281 13.171875 13.226562 13.15625 13.246094 13.117188 C 13.269531 13.078125 13.261719 13.066406 13.230469 13.078125 C 13.175781 13.097656 12.984375 12.96875 12.984375 12.910156 C 12.984375 12.890625 12.953125 12.859375 12.910156 12.839844 C 12.867188 12.824219 12.828125 12.769531 12.824219 12.726562 C 12.820312 12.664062 12.800781 12.644531 12.753906 12.652344 C 12.714844 12.660156 12.703125 12.652344 12.714844 12.628906 C 12.730469 12.609375 12.703125 12.554688 12.648438 12.507812 C 12.601562 12.464844 12.558594 12.40625 12.558594 12.382812 C 12.558594 12.355469 12.546875 12.347656 12.53125 12.355469 C 12.488281 12.375 12.328125 12.273438 12.269531 12.1875 C 12.246094 12.15625 12.238281 12.101562 12.25 12.070312 C 12.273438 12.03125 12.269531 12.023438 12.238281 12.050781 C 12.175781 12.101562 12.117188 12.042969 12.15625 11.964844 C 12.175781 11.925781 12.171875 11.917969 12.140625 11.941406 C 12.082031 11.992188 11.847656 11.863281 11.847656 11.777344 C 11.847656 11.742188 11.835938 11.730469 11.808594 11.753906 C 11.785156 11.773438 11.714844 11.714844 11.621094 11.597656 C 11.535156 11.496094 11.480469 11.398438 11.492188 11.390625 C 11.507812 11.375 11.496094 11.335938 11.472656 11.300781 C 11.441406 11.257812 11.425781 11.253906 11.425781 11.285156 C 11.421875 11.3125 11.402344 11.332031 11.375 11.332031 C 11.351562 11.332031 11.339844 11.316406 11.355469 11.296875 C 11.363281 11.28125 11.335938 11.238281 11.28125 11.214844 C 11.226562 11.1875 11.183594 11.148438 11.183594 11.128906 C 11.183594 11.113281 11.140625 11.089844 11.089844 11.078125 C 10.996094 11.0625 10.929688 10.976562 10.957031 10.90625 C 10.96875 10.882812 10.929688 10.863281 10.867188 10.859375 C 10.804688 10.851562 10.757812 10.835938 10.757812 10.824219 C 10.757812 10.800781 10.539062 10.617188 10.46875 10.585938 C 10.453125 10.578125 10.425781 10.542969 10.414062 10.5 C 10.394531 10.464844 10.316406 10.398438 10.238281 10.355469 C 10.140625 10.308594 10.105469 10.265625 10.125 10.230469 C 10.136719 10.207031 10.125 10.164062 10.089844 10.144531 C 10.050781 10.121094 10.027344 10.019531 10.027344 9.894531 C 10.023438 9.777344 10.007812 9.691406 9.996094 9.695312 C 9.976562 9.703125 9.949219 9.6875 9.933594 9.664062 C 9.890625 9.601562 9.902344 9.582031 9.957031 9.625 C 9.992188 9.65625 9.996094 9.605469 9.972656 9.457031 C 9.953125 9.316406 9.957031 9.253906 9.996094 9.253906 C 10.027344 9.253906 10.039062 9.214844 10.015625 9.132812 C 9.996094 9.050781 10.003906 9.011719 10.042969 9.011719 C 10.070312 9.011719 10.09375 9.046875 10.09375 9.085938 C 10.09375 9.128906 10.117188 9.179688 10.148438 9.199219 C 10.183594 9.230469 10.191406 9.230469 10.171875 9.1875 C 10.128906 9.101562 10.046875 8.664062 10.046875 8.523438 C 10.046875 8.441406 10.066406 8.398438 10.109375 8.398438 C 10.15625 8.398438 10.164062 8.335938 10.15625 8.125 C 10.152344 7.945312 10.160156 7.878906 10.183594 7.921875 C 10.238281 8.003906 10.242188 7.972656 10.242188 7.640625 C 10.242188 7.460938 10.257812 7.390625 10.285156 7.425781 C 10.316406 7.472656 10.328125 7.46875 10.328125 7.398438 C 10.332031 7.355469 10.339844 7.109375 10.351562 6.851562 C 10.359375 6.597656 10.382812 6.367188 10.402344 6.339844 C 10.421875 6.3125 10.417969 6.292969 10.382812 6.292969 C 10.355469 6.292969 10.324219 6.324219 10.304688 6.367188 Z M 20.140625 12.734375 C 20.140625 12.757812 20.117188 12.769531 20.09375 12.761719 C 20.066406 12.75 20.058594 12.730469 20.070312 12.71875 C 20.113281 12.679688 20.140625 12.6875 20.140625 12.734375 Z M 20.140625 12.734375 "/>
<path style=" stroke:none;fill-rule:nonzero;fill:rgb(0%,0%,0%);fill-opacity:1;" d="M 10.242188 8.121094 C 10.242188 8.152344 10.257812 8.160156 10.269531 8.136719 C 10.285156 8.121094 10.28125 8.097656 10.265625 8.089844 C 10.25 8.078125 10.238281 8.09375 10.242188 8.121094 Z M 10.242188 8.121094 "/>
<path style=" stroke:none;fill-rule:nonzero;fill:rgb(0%,0%,0%);fill-opacity:1;" d="M 10.289062 8.28125 C 10.289062 8.3125 10.304688 8.320312 10.316406 8.296875 C 10.332031 8.28125 10.328125 8.257812 10.3125 8.246094 C 10.296875 8.238281 10.285156 8.253906 10.289062 8.28125 Z M 10.289062 8.28125 "/>
<path style=" stroke:none;fill-rule:nonzero;fill:rgb(0%,0%,0%);fill-opacity:1;" d="M 10.132812 8.601562 C 10.140625 8.652344 10.160156 8.691406 10.171875 8.691406 C 10.179688 8.691406 10.191406 8.652344 10.191406 8.601562 C 10.191406 8.550781 10.171875 8.507812 10.152344 8.507812 C 10.132812 8.507812 10.125 8.550781 10.132812 8.601562 Z M 10.132812 8.601562 "/>
<path style=" stroke:none;fill-rule:nonzero;fill:rgb(0%,0%,0%);fill-opacity:1;" d="M 10.074219 9.539062 C 10.125 9.644531 10.140625 9.648438 10.140625 9.550781 C 10.140625 9.503906 10.117188 9.464844 10.09375 9.464844 C 10.066406 9.464844 10.058594 9.496094 10.074219 9.539062 Z M 10.074219 9.539062 "/>
<path style=" stroke:none;fill-rule:nonzero;fill:rgb(0%,0%,0%);fill-opacity:1;" d="M 11.355469 11.179688 C 11.371094 11.207031 11.398438 11.222656 11.414062 11.214844 C 11.425781 11.207031 11.414062 11.183594 11.378906 11.164062 C 11.332031 11.140625 11.328125 11.144531 11.355469 11.179688 Z M 11.355469 11.179688 "/>
<path style=" stroke:none;fill-rule:nonzero;fill:rgb(0%,0%,0%);fill-opacity:1;" d="M 12.226562 11.871094 C 12.261719 11.898438 12.292969 11.921875 12.304688 11.910156 C 12.335938 11.894531 12.269531 11.8125 12.222656 11.8125 C 12.195312 11.8125 12.199219 11.835938 12.226562 11.871094 Z M 12.226562 11.871094 "/>
<path style=" stroke:none;fill-rule:nonzero;fill:rgb(0%,0%,0%);fill-opacity:1;" d="M 20.289062 12.789062 C 20.289062 12.820312 20.304688 12.828125 20.316406 12.804688 C 20.332031 12.785156 20.328125 12.761719 20.3125 12.753906 C 20.296875 12.742188 20.285156 12.761719 20.289062 12.789062 Z M 20.289062 12.789062 "/>
<path style=" stroke:none;fill-rule:nonzero;fill:rgb(0%,0%,0%);fill-opacity:1;" d="M 20.453125 12.816406 C 20.4375 12.851562 20.429688 12.894531 20.445312 12.898438 C 20.460938 12.90625 20.484375 12.878906 20.503906 12.84375 C 20.515625 12.800781 20.519531 12.765625 20.507812 12.757812 C 20.496094 12.75 20.46875 12.777344 20.453125 12.816406 Z M 20.453125 12.816406 "/>
<path style=" stroke:none;fill-rule:nonzero;fill:rgb(0%,0%,0%);fill-opacity:1;" d="M 20.339844 13.066406 C 20.339844 13.105469 20.351562 13.117188 20.363281 13.097656 C 20.375 13.082031 20.375 13.050781 20.363281 13.03125 C 20.351562 13.015625 20.339844 13.03125 20.339844 13.066406 Z M 20.339844 13.066406 "/>
<path style=" stroke:none;fill-rule:nonzero;fill:rgb(0%,0%,0%);fill-opacity:1;" d="M 6.527344 13.933594 C 6.460938 14.082031 6.4375 14.96875 6.484375 15.441406 C 6.515625 15.777344 6.5625 15.976562 6.640625 16.136719 C 6.753906 16.375 6.820312 16.386719 6.730469 16.15625 C 6.617188 15.84375 6.617188 15.066406 6.730469 15.066406 C 6.753906 15.066406 7.03125 15.230469 7.351562 15.425781 C 7.667969 15.625 7.9375 15.78125 7.953125 15.773438 C 7.976562 15.761719 7.417969 15.339844 7.21875 15.214844 C 7.089844 15.132812 6.75 14.753906 6.675781 14.613281 C 6.648438 14.546875 6.605469 14.347656 6.59375 14.171875 C 6.574219 13.949219 6.554688 13.878906 6.527344 13.933594 Z M 6.527344 13.933594 "/>
<path style=" stroke:none;fill-rule:nonzero;fill:rgb(0%,0%,0%);fill-opacity:1;" d="M 27.203125 14.453125 C 26.71875 14.464844 25.71875 14.488281 24.976562 14.503906 C 23.617188 14.535156 23.4375 14.542969 22.914062 14.621094 C 22.332031 14.710938 21.890625 14.824219 21.613281 14.957031 C 21.402344 15.054688 21.449219 15.089844 21.703125 15.011719 C 21.972656 14.9375 22.667969 14.835938 23.316406 14.785156 C 24.058594 14.722656 25.636719 14.722656 26.484375 14.78125 C 27.828125 14.878906 29.074219 15.078125 29.703125 15.300781 L 29.808594 15.339844 L 29.605469 15.476562 C 29.0625 15.84375 26.84375 17.136719 26.328125 17.390625 C 26.222656 17.4375 25.992188 17.550781 25.804688 17.640625 C 25.625 17.726562 25.417969 17.828125 25.347656 17.867188 C 25.273438 17.902344 25.09375 17.992188 24.949219 18.066406 C 24.128906 18.476562 23.90625 18.648438 24.355469 18.519531 C 24.480469 18.484375 24.617188 18.433594 24.648438 18.40625 C 24.707031 18.371094 24.707031 18.367188 24.648438 18.386719 C 24.601562 18.398438 24.59375 18.398438 24.617188 18.375 C 24.636719 18.355469 24.695312 18.351562 24.753906 18.359375 C 24.820312 18.371094 24.839844 18.367188 24.796875 18.351562 C 24.753906 18.335938 24.769531 18.316406 24.859375 18.265625 C 24.917969 18.234375 24.960938 18.195312 24.949219 18.183594 C 24.933594 18.171875 24.996094 18.144531 25.082031 18.121094 C 25.164062 18.097656 25.308594 18.054688 25.394531 18.023438 C 25.597656 17.949219 25.585938 17.996094 25.378906 18.078125 C 25.285156 18.113281 25.222656 18.148438 25.230469 18.15625 C 25.246094 18.160156 25.402344 18.113281 25.578125 18.046875 C 25.753906 17.980469 25.949219 17.921875 26.003906 17.910156 C 26.09375 17.894531 26.257812 17.8125 26.195312 17.8125 C 26.183594 17.8125 26.074219 17.84375 25.953125 17.882812 C 25.636719 17.980469 25.683594 17.925781 26.042969 17.777344 C 26.207031 17.707031 26.347656 17.644531 26.339844 17.632812 C 26.332031 17.601562 26.40625 17.519531 26.449219 17.519531 C 26.527344 17.519531 26.726562 17.386719 26.703125 17.347656 C 26.6875 17.324219 26.714844 17.304688 26.777344 17.292969 C 26.828125 17.28125 26.910156 17.246094 26.953125 17.210938 C 27.003906 17.164062 27.042969 17.152344 27.074219 17.171875 C 27.105469 17.1875 27.148438 17.199219 27.175781 17.199219 C 27.203125 17.199219 27.199219 17.1875 27.164062 17.167969 C 27.082031 17.121094 27.09375 17.09375 27.207031 17.09375 C 27.269531 17.09375 27.292969 17.082031 27.269531 17.0625 C 27.25 17.046875 27.257812 17.039062 27.285156 17.046875 C 27.308594 17.054688 27.414062 17.023438 27.511719 16.976562 C 27.613281 16.925781 27.71875 16.890625 27.742188 16.894531 C 27.773438 16.898438 27.875 16.84375 27.976562 16.769531 C 28.070312 16.699219 28.132812 16.640625 28.105469 16.640625 C 28.082031 16.640625 28.058594 16.652344 28.058594 16.667969 C 28.058594 16.683594 28.03125 16.6875 28.007812 16.679688 C 27.980469 16.667969 28.015625 16.636719 28.089844 16.605469 C 28.28125 16.523438 28.347656 16.484375 28.335938 16.460938 C 28.324219 16.40625 28.347656 16.371094 28.386719 16.386719 C 28.417969 16.394531 28.4375 16.390625 28.4375 16.371094 C 28.4375 16.332031 28.75 16.132812 28.78125 16.152344 C 28.796875 16.15625 28.828125 16.136719 28.863281 16.109375 C 28.890625 16.078125 28.949219 16.054688 28.996094 16.050781 C 29.042969 16.050781 29.050781 16.042969 29.019531 16.039062 C 28.984375 16.03125 29.058594 15.96875 29.203125 15.890625 C 29.335938 15.820312 29.425781 15.761719 29.40625 15.761719 C 29.386719 15.761719 29.4375 15.722656 29.515625 15.679688 C 29.601562 15.632812 29.695312 15.601562 29.738281 15.601562 C 29.78125 15.601562 29.796875 15.585938 29.777344 15.558594 C 29.761719 15.535156 29.777344 15.519531 29.816406 15.523438 C 29.863281 15.53125 29.875 15.511719 29.867188 15.46875 C 29.851562 15.429688 29.867188 15.414062 29.90625 15.425781 C 29.9375 15.4375 29.972656 15.425781 29.984375 15.390625 C 30 15.355469 30.0625 15.324219 30.136719 15.316406 C 30.203125 15.308594 30.304688 15.292969 30.359375 15.28125 C 30.460938 15.257812 30.953125 15.214844 31.398438 15.1875 C 31.53125 15.179688 31.703125 15.164062 31.785156 15.15625 L 31.9375 15.140625 L 31.953125 14.847656 C 31.960938 14.683594 31.957031 14.546875 31.941406 14.535156 C 31.875 14.480469 28.445312 14.425781 27.203125 14.453125 Z M 27.785156 14.550781 C 27.621094 14.558594 27.355469 14.558594 27.195312 14.550781 C 27.027344 14.546875 27.160156 14.542969 27.488281 14.542969 C 27.816406 14.542969 27.949219 14.546875 27.785156 14.550781 Z M 28.78125 14.578125 C 28.75 14.585938 28.683594 14.585938 28.640625 14.578125 C 28.59375 14.570312 28.621094 14.566406 28.695312 14.566406 C 28.777344 14.566406 28.808594 14.570312 28.78125 14.578125 Z M 29.171875 14.585938 C 29.183594 14.601562 29.238281 14.613281 29.28125 14.613281 C 29.351562 14.613281 29.351562 14.609375 29.289062 14.585938 C 29.238281 14.566406 29.261719 14.558594 29.382812 14.5625 C 29.507812 14.5625 29.527344 14.566406 29.460938 14.585938 C 29.378906 14.601562 29.382812 14.609375 29.507812 14.632812 C 29.582031 14.652344 29.6875 14.667969 29.738281 14.675781 C 29.792969 14.683594 29.730469 14.691406 29.597656 14.691406 C 29.46875 14.699219 29.40625 14.707031 29.46875 14.710938 C 29.527344 14.71875 29.574219 14.734375 29.574219 14.753906 C 29.574219 14.769531 29.621094 14.773438 29.695312 14.761719 C 29.796875 14.746094 29.816406 14.753906 29.800781 14.792969 C 29.792969 14.820312 29.75 14.835938 29.703125 14.832031 C 29.585938 14.820312 29.601562 14.871094 29.714844 14.886719 C 29.769531 14.894531 29.808594 14.917969 29.808594 14.933594 C 29.808594 14.953125 29.777344 14.960938 29.734375 14.949219 C 29.691406 14.941406 29.597656 14.933594 29.519531 14.933594 C 29.4375 14.933594 29.386719 14.921875 29.40625 14.90625 C 29.421875 14.890625 29.414062 14.878906 29.382812 14.878906 C 29.351562 14.878906 29.339844 14.863281 29.355469 14.839844 C 29.375 14.8125 29.339844 14.789062 29.257812 14.769531 C 29.105469 14.738281 29.0625 14.757812 29.164062 14.8125 C 29.332031 14.910156 29.050781 14.945312 28.871094 14.851562 C 28.816406 14.824219 28.75 14.800781 28.71875 14.800781 C 28.695312 14.800781 28.671875 14.785156 28.671875 14.773438 C 28.671875 14.757812 28.570312 14.746094 28.441406 14.746094 C 28.109375 14.746094 27.773438 14.71875 27.800781 14.691406 C 27.816406 14.675781 27.882812 14.664062 27.953125 14.660156 C 28.03125 14.660156 28 14.652344 27.867188 14.640625 C 27.714844 14.628906 27.800781 14.621094 28.164062 14.621094 C 28.570312 14.617188 28.671875 14.625 28.671875 14.65625 C 28.671875 14.675781 28.707031 14.691406 28.75 14.691406 C 28.785156 14.691406 28.804688 14.703125 28.792969 14.71875 C 28.777344 14.734375 28.796875 14.746094 28.835938 14.746094 C 28.875 14.746094 28.910156 14.726562 28.910156 14.707031 C 28.910156 14.660156 28.984375 14.652344 29.027344 14.691406 C 29.042969 14.707031 29.074219 14.71875 29.09375 14.71875 C 29.148438 14.71875 29.140625 14.632812 29.085938 14.59375 C 29.058594 14.570312 29.058594 14.558594 29.089844 14.558594 C 29.117188 14.558594 29.15625 14.570312 29.171875 14.585938 Z M 30.664062 14.613281 C 30.574219 14.648438 30.519531 14.648438 30.519531 14.613281 C 30.519531 14.597656 30.570312 14.585938 30.628906 14.585938 C 30.714844 14.585938 30.71875 14.59375 30.664062 14.613281 Z M 31.304688 14.644531 C 31.355469 14.671875 31.28125 14.671875 31.03125 14.652344 C 30.933594 14.640625 30.867188 14.625 30.875 14.609375 C 30.90625 14.585938 31.238281 14.609375 31.304688 14.644531 Z M 31.863281 14.714844 C 31.84375 14.761719 31.800781 14.773438 31.660156 14.773438 C 31.558594 14.773438 31.464844 14.785156 31.453125 14.800781 C 31.441406 14.816406 31.4375 14.8125 31.441406 14.792969 C 31.445312 14.777344 31.535156 14.746094 31.640625 14.726562 C 31.753906 14.710938 31.785156 14.695312 31.730469 14.691406 C 31.648438 14.6875 31.652344 14.683594 31.753906 14.667969 C 31.902344 14.644531 31.894531 14.644531 31.863281 14.714844 Z M 30.285156 14.691406 C 30.335938 14.710938 30.324219 14.71875 30.214844 14.71875 C 30.136719 14.71875 30.027344 14.707031 29.976562 14.691406 C 29.902344 14.675781 29.910156 14.667969 30.046875 14.667969 C 30.136719 14.667969 30.246094 14.679688 30.285156 14.691406 Z M 30.902344 14.691406 C 30.902344 14.703125 30.960938 14.726562 31.042969 14.746094 C 31.117188 14.765625 31.171875 14.789062 31.15625 14.800781 C 31.113281 14.84375 30.914062 14.828125 30.800781 14.773438 C 30.703125 14.726562 30.695312 14.71875 30.757812 14.691406 C 30.847656 14.660156 30.902344 14.660156 30.902344 14.691406 Z M 31.089844 14.691406 C 31.089844 14.710938 31.183594 14.714844 31.316406 14.707031 C 31.53125 14.691406 31.535156 14.695312 31.378906 14.722656 C 31.207031 14.753906 30.996094 14.734375 30.996094 14.691406 C 30.996094 14.675781 31.019531 14.667969 31.042969 14.667969 C 31.070312 14.667969 31.089844 14.675781 31.089844 14.691406 Z M 30.492188 14.738281 C 30.546875 14.8125 30.398438 14.851562 30.148438 14.835938 C 29.859375 14.816406 29.785156 14.773438 30.027344 14.769531 C 30.375 14.761719 30.402344 14.757812 30.394531 14.726562 C 30.375 14.675781 30.460938 14.6875 30.492188 14.738281 Z M 28.613281 14.8125 C 28.664062 14.835938 28.324219 14.828125 28.246094 14.800781 C 28.195312 14.777344 28.230469 14.773438 28.378906 14.78125 C 28.488281 14.785156 28.59375 14.800781 28.613281 14.8125 Z M 31.816406 14.820312 C 31.78125 14.824219 31.714844 14.824219 31.671875 14.820312 C 31.625 14.8125 31.652344 14.804688 31.730469 14.804688 C 31.808594 14.804688 31.84375 14.8125 31.816406 14.820312 Z M 30.710938 14.863281 C 30.710938 14.910156 30.808594 14.933594 31.007812 14.9375 C 31.136719 14.9375 31.128906 14.941406 30.949219 14.960938 C 30.425781 15.019531 30.4375 15.019531 30.417969 14.96875 C 30.394531 14.910156 30.511719 14.828125 30.628906 14.828125 C 30.671875 14.828125 30.710938 14.84375 30.710938 14.863281 Z M 31.628906 14.871094 C 31.925781 14.894531 31.90625 14.921875 31.597656 14.917969 C 31.214844 14.910156 31.183594 14.910156 31.183594 14.878906 C 31.183594 14.847656 31.316406 14.84375 31.628906 14.871094 Z M 29.976562 14.933594 C 29.992188 14.945312 29.980469 14.960938 29.957031 14.960938 C 29.929688 14.960938 29.90625 14.945312 29.90625 14.933594 C 29.90625 14.917969 29.914062 14.90625 29.925781 14.90625 C 29.9375 14.90625 29.960938 14.917969 29.976562 14.933594 Z M 30.273438 14.949219 C 30.203125 14.992188 30.191406 14.992188 30.117188 14.949219 C 30.046875 14.910156 30.050781 14.90625 30.195312 14.90625 C 30.339844 14.90625 30.347656 14.910156 30.273438 14.949219 Z M 29.265625 14.960938 C 29.347656 14.980469 29.339844 14.984375 29.230469 14.980469 C 29.160156 14.972656 29.089844 14.960938 29.070312 14.953125 C 29.023438 14.925781 29.152344 14.929688 29.265625 14.960938 Z M 29.804688 15.003906 C 29.851562 15.027344 29.59375 15.011719 29.527344 14.988281 C 29.472656 14.96875 29.503906 14.964844 29.621094 14.976562 C 29.710938 14.988281 29.796875 14.996094 29.804688 15.003906 Z M 31.695312 14.980469 C 31.648438 14.984375 31.574219 14.984375 31.53125 14.980469 C 31.484375 14.96875 31.519531 14.964844 31.613281 14.964844 C 31.703125 14.964844 31.738281 14.96875 31.695312 14.980469 Z M 30.140625 15.050781 C 30.140625 15.054688 30.089844 15.066406 30.023438 15.070312 C 29.957031 15.078125 29.90625 15.074219 29.90625 15.0625 C 29.90625 15.050781 29.957031 15.039062 30.023438 15.039062 C 30.089844 15.039062 30.140625 15.046875 30.140625 15.050781 Z M 27.890625 16.746094 C 27.84375 16.777344 27.796875 16.792969 27.78125 16.785156 C 27.75 16.769531 27.867188 16.691406 27.929688 16.691406 C 27.953125 16.691406 27.9375 16.71875 27.890625 16.746094 Z M 24.453125 18.4375 C 24.453125 18.445312 24.4375 18.457031 24.40625 18.464844 C 24.382812 18.476562 24.359375 18.46875 24.359375 18.457031 C 24.359375 18.441406 24.382812 18.425781 24.40625 18.425781 C 24.4375 18.425781 24.453125 18.433594 24.453125 18.4375 Z M 24.453125 18.4375 "/>
<path style=" stroke:none;fill-rule:nonzero;fill:rgb(0%,0%,0%);fill-opacity:1;" d="M 29.511719 14.851562 C 29.527344 14.882812 29.546875 14.90625 29.554688 14.90625 C 29.5625 14.90625 29.574219 14.882812 29.574219 14.851562 C 29.574219 14.824219 29.554688 14.800781 29.53125 14.800781 C 29.507812 14.800781 29.496094 14.824219 29.511719 14.851562 Z M 29.511719 14.851562 "/>
<path style=" stroke:none;fill-rule:nonzero;fill:rgb(0%,0%,0%);fill-opacity:1;" d="M 4.929688 15.792969 C 4.929688 15.828125 5.136719 16.132812 5.308594 16.347656 C 5.730469 16.875 6.089844 17.195312 6.199219 17.136719 C 6.214844 17.128906 6.183594 17.09375 6.132812 17.058594 C 5.90625 16.910156 5.667969 16.640625 5.574219 16.417969 C 5.535156 16.324219 5.5625 16.324219 6.089844 16.449219 C 6.863281 16.636719 7.050781 16.636719 6.316406 16.449219 C 5.601562 16.269531 5.363281 16.171875 5.148438 15.960938 C 4.984375 15.808594 4.929688 15.765625 4.929688 15.792969 Z M 4.929688 15.792969 "/>
<path style=" stroke:none;fill-rule:nonzero;fill:rgb(0%,0%,0%);fill-opacity:1;" d="M 9.550781 16.566406 C 9.539062 16.585938 9.519531 16.632812 9.511719 16.679688 C 9.496094 16.722656 9.445312 16.875 9.394531 17.011719 C 9.28125 17.304688 9.21875 17.691406 9.261719 17.820312 C 9.28125 17.878906 9.339844 17.929688 9.445312 17.964844 C 9.527344 17.996094 9.707031 18.082031 9.84375 18.152344 C 10.804688 18.65625 11.019531 18.761719 11.082031 18.769531 C 11.117188 18.773438 11.136719 18.769531 11.128906 18.753906 C 11.117188 18.742188 11.070312 18.683594 11.027344 18.625 C 10.980469 18.566406 10.925781 18.5 10.902344 18.476562 C 10.871094 18.449219 10.851562 18.414062 10.851562 18.394531 C 10.851562 18.34375 10.5625 18.027344 10.515625 18.027344 C 10.492188 18.027344 10.460938 18.046875 10.445312 18.066406 C 10.425781 18.089844 10.398438 18.105469 10.378906 18.105469 C 10.324219 18.105469 10.28125 18.027344 10.316406 17.992188 C 10.382812 17.929688 10.363281 17.742188 10.28125 17.636719 C 10.089844 17.398438 9.738281 16.804688 9.691406 16.644531 C 9.660156 16.539062 9.59375 16.5 9.550781 16.566406 Z M 9.550781 16.566406 "/>
<path style=" stroke:none;fill-rule:nonzero;fill:rgb(0%,0%,0%);fill-opacity:1;" d="M 27.960938 16.867188 C 27.929688 16.890625 27.910156 16.914062 27.925781 16.921875 C 27.9375 16.929688 27.976562 16.917969 28.007812 16.894531 C 28.042969 16.871094 28.0625 16.84375 28.046875 16.839844 C 28.03125 16.832031 27.996094 16.84375 27.960938 16.867188 Z M 27.960938 16.867188 "/>
<path style=" stroke:none;fill-rule:nonzero;fill:rgb(0%,0%,0%);fill-opacity:1;" d="M 27.273438 17.148438 C 27.257812 17.164062 27.25 17.179688 27.265625 17.1875 C 27.273438 17.199219 27.296875 17.183594 27.3125 17.160156 C 27.347656 17.113281 27.316406 17.105469 27.273438 17.148438 Z M 27.273438 17.148438 "/>
<path style=" stroke:none;fill-rule:nonzero;fill:rgb(0%,0%,0%);fill-opacity:1;" d="M 26.96875 17.25 C 26.96875 17.265625 26.933594 17.296875 26.890625 17.320312 C 26.761719 17.390625 26.851562 17.394531 26.984375 17.324219 C 27.128906 17.25 27.136719 17.226562 27.039062 17.226562 C 27 17.226562 26.96875 17.238281 26.96875 17.25 Z M 26.96875 17.25 "/>
<path style=" stroke:none;fill-rule:nonzero;fill:rgb(0%,0%,0%);fill-opacity:1;" d="M 27.132812 17.332031 C 27.085938 17.363281 27.058594 17.386719 27.070312 17.386719 C 27.085938 17.386719 27.140625 17.363281 27.203125 17.332031 C 27.265625 17.304688 27.292969 17.28125 27.265625 17.28125 C 27.242188 17.28125 27.179688 17.304688 27.132812 17.332031 Z M 27.132812 17.332031 "/>
<path style=" stroke:none;fill-rule:nonzero;fill:rgb(0%,0%,0%);fill-opacity:1;" d="M 5.734375 17.371094 C 5.179688 17.441406 4.042969 17.800781 3.5625 18.0625 C 3.175781 18.277344 2.90625 18.527344 2.664062 18.90625 C 2.472656 19.199219 2.261719 19.667969 2.289062 19.726562 C 2.308594 19.765625 2.3125 19.761719 2.316406 19.71875 C 2.328125 19.605469 2.660156 19.082031 2.851562 18.871094 C 3.222656 18.46875 3.667969 18.171875 4.324219 17.898438 C 4.710938 17.734375 5.371094 17.535156 5.78125 17.449219 C 6.316406 17.34375 6.289062 17.300781 5.734375 17.371094 Z M 5.734375 17.371094 "/>
<path style=" stroke:none;fill-rule:nonzero;fill:rgb(0%,0%,0%);fill-opacity:1;" d="M 26.710938 17.480469 C 26.636719 17.511719 26.628906 17.519531 26.691406 17.519531 C 26.730469 17.519531 26.792969 17.5 26.824219 17.480469 C 26.902344 17.429688 26.828125 17.429688 26.710938 17.480469 Z M 26.710938 17.480469 "/>
<path style=" stroke:none;fill-rule:nonzero;fill:rgb(0%,0%,0%);fill-opacity:1;" d="M 8.152344 17.851562 C 8.152344 17.933594 8.179688 17.941406 8.214844 17.867188 C 8.226562 17.835938 8.21875 17.804688 8.195312 17.796875 C 8.171875 17.789062 8.152344 17.8125 8.152344 17.851562 Z M 8.152344 17.851562 "/>
<path style=" stroke:none;fill-rule:nonzero;fill:rgb(0%,0%,0%);fill-opacity:1;" d="M 8.207031 18.054688 C 8.207031 18.089844 8.21875 18.105469 8.230469 18.085938 C 8.242188 18.070312 8.242188 18.039062 8.230469 18.019531 C 8.21875 18.003906 8.207031 18.015625 8.207031 18.054688 Z M 8.207031 18.054688 "/>
<path style=" stroke:none;fill-rule:nonzero;fill:rgb(0%,0%,0%);fill-opacity:1;" d="M 25.710938 18.078125 C 25.695312 18.09375 25.703125 18.105469 25.730469 18.105469 C 25.753906 18.105469 25.792969 18.09375 25.804688 18.078125 C 25.820312 18.0625 25.816406 18.054688 25.785156 18.054688 C 25.761719 18.054688 25.726562 18.0625 25.710938 18.078125 Z M 25.710938 18.078125 "/>
<path style=" stroke:none;fill-rule:nonzero;fill:rgb(0%,0%,0%);fill-opacity:1;" d="M 26.21875 18.171875 C 25.929688 18.222656 25.808594 18.273438 25.332031 18.542969 C 24.460938 19.039062 24.066406 19.382812 23.71875 19.960938 C 23.519531 20.285156 23.464844 20.425781 23.535156 20.425781 C 23.550781 20.425781 23.644531 20.390625 23.738281 20.351562 C 23.9375 20.265625 24.4375 20.109375 24.730469 20.046875 C 24.925781 20 25.070312 20.011719 25.164062 20.078125 C 25.230469 20.121094 25.460938 20.1875 25.558594 20.1875 C 25.621094 20.1875 25.796875 20.144531 25.953125 20.089844 C 26.53125 19.890625 26.464844 19.902344 26.660156 19.960938 C 26.757812 19.988281 26.992188 20.101562 27.179688 20.207031 C 27.375 20.3125 27.558594 20.398438 27.601562 20.398438 C 27.640625 20.398438 27.792969 20.3125 27.933594 20.207031 C 28.335938 19.90625 28.601562 19.769531 28.871094 19.71875 C 29.316406 19.632812 29.875 19.714844 30.207031 19.90625 C 30.304688 19.960938 30.378906 19.996094 30.378906 19.980469 C 30.375 19.917969 30.222656 19.824219 29.917969 19.695312 C 29.363281 19.460938 28.828125 19.375 28.109375 19.390625 C 27.59375 19.40625 27.261719 19.464844 26.871094 19.605469 C 26.605469 19.703125 26.488281 19.761719 26.378906 19.851562 C 26.332031 19.890625 26.214844 19.90625 25.800781 19.933594 C 25.515625 19.953125 25.285156 19.964844 25.285156 19.960938 C 25.285156 19.960938 25.246094 19.921875 25.199219 19.871094 C 24.972656 19.644531 25.03125 19.246094 25.363281 18.855469 C 25.648438 18.519531 26.039062 18.324219 26.660156 18.199219 C 26.75 18.179688 26.742188 18.179688 26.636719 18.160156 C 26.472656 18.128906 26.449219 18.128906 26.21875 18.171875 Z M 26.21875 18.171875 "/>
<path style=" stroke:none;fill-rule:nonzero;fill:rgb(0%,0%,0%);fill-opacity:1;" d="M 6.6875 18.210938 C 6.53125 18.371094 6.246094 18.9375 6.179688 19.210938 C 6.160156 19.277344 6.125 19.34375 6.09375 19.355469 C 6.066406 19.371094 5.914062 19.402344 5.757812 19.425781 C 5.339844 19.492188 5 19.613281 4.585938 19.835938 L 4.21875 20.035156 L 4.296875 20.109375 C 4.347656 20.152344 4.40625 20.1875 4.4375 20.1875 C 4.492188 20.1875 4.570312 20.308594 4.53125 20.339844 C 4.519531 20.351562 4.53125 20.421875 4.558594 20.492188 C 4.582031 20.566406 4.628906 20.765625 4.664062 20.933594 L 4.71875 21.238281 L 4.753906 20.871094 C 4.804688 20.296875 4.941406 20.097656 5.570312 19.683594 C 5.648438 19.632812 6.007812 19.492188 6.070312 19.492188 C 6.082031 19.492188 6.089844 19.667969 6.089844 19.886719 C 6.089844 20.105469 6.117188 20.363281 6.15625 20.464844 C 6.238281 20.714844 6.386719 21.0625 6.453125 21.160156 C 6.601562 21.378906 6.9375 21.808594 7.15625 22.054688 C 7.421875 22.355469 7.972656 22.886719 8 22.871094 C 8.007812 22.863281 7.894531 22.722656 7.75 22.558594 C 7.269531 22.023438 7.023438 21.667969 6.714844 21.066406 C 6.464844 20.585938 6.339844 19.726562 6.441406 19.148438 C 6.496094 18.8125 6.652344 18.347656 6.738281 18.257812 C 6.761719 18.230469 6.777344 18.199219 6.761719 18.179688 C 6.753906 18.160156 6.71875 18.171875 6.6875 18.210938 Z M 6.6875 18.210938 "/>
<path style=" stroke:none;fill-rule:nonzero;fill:rgb(0%,0%,0%);fill-opacity:1;" d="M 8.257812 18.414062 C 8.257812 18.457031 8.265625 18.472656 8.28125 18.445312 C 8.289062 18.421875 8.289062 18.382812 8.28125 18.367188 C 8.265625 18.347656 8.257812 18.367188 8.257812 18.414062 Z M 8.257812 18.414062 "/>
<path style=" stroke:none;fill-rule:nonzero;fill:rgb(0%,0%,0%);fill-opacity:1;" d="M 19.003906 18.457031 C 18.804688 18.476562 18.363281 18.542969 17.785156 18.628906 C 17.558594 18.664062 17.535156 18.675781 17.535156 18.742188 C 17.535156 18.910156 17.371094 18.972656 17.3125 18.828125 C 17.273438 18.71875 17.148438 18.703125 16.726562 18.769531 C 16.53125 18.796875 16.226562 18.835938 16.042969 18.855469 C 15.664062 18.894531 15.175781 18.960938 14.597656 19.054688 C 13.871094 19.171875 13.695312 19.207031 13.695312 19.230469 C 13.695312 19.242188 13.835938 19.289062 14.003906 19.335938 C 14.175781 19.382812 14.421875 19.457031 14.546875 19.507812 C 14.796875 19.601562 15.304688 19.699219 15.671875 19.722656 C 15.796875 19.730469 16.050781 19.753906 16.238281 19.777344 C 16.785156 19.835938 17.363281 19.828125 17.71875 19.761719 C 18.191406 19.671875 18.347656 19.617188 18.625 19.449219 C 18.894531 19.289062 19.066406 19.113281 19.21875 18.851562 C 19.328125 18.664062 19.363281 18.640625 19.546875 18.640625 C 19.625 18.636719 19.738281 18.625 19.800781 18.601562 C 19.9375 18.5625 19.882812 18.527344 19.574219 18.464844 C 19.351562 18.421875 19.3125 18.421875 19.003906 18.457031 Z M 19.003906 18.457031 "/>
<path style=" stroke:none;fill-rule:nonzero;fill:rgb(0%,0%,0%);fill-opacity:1;" d="M 8.75 18.515625 C 8.761719 18.542969 8.792969 18.554688 8.804688 18.546875 C 8.820312 18.539062 8.804688 18.515625 8.773438 18.5 C 8.726562 18.476562 8.71875 18.476562 8.75 18.515625 Z M 8.75 18.515625 "/>
<path style=" stroke:none;fill-rule:nonzero;fill:rgb(0%,0%,0%);fill-opacity:1;" d="M 8.308594 18.679688 C 8.308594 18.738281 8.316406 18.761719 8.328125 18.726562 C 8.335938 18.691406 8.335938 18.644531 8.328125 18.617188 C 8.3125 18.59375 8.304688 18.621094 8.308594 18.679688 Z M 8.308594 18.679688 "/>
<path style=" stroke:none;fill-rule:nonzero;fill:rgb(0%,0%,0%);fill-opacity:1;" d="M 8.863281 18.636719 C 8.886719 18.667969 8.933594 18.699219 8.960938 18.710938 C 8.992188 18.71875 8.976562 18.695312 8.933594 18.65625 C 8.839844 18.574219 8.792969 18.5625 8.863281 18.636719 Z M 8.863281 18.636719 "/>
<path style=" stroke:none;fill-rule:nonzero;fill:rgb(0%,0%,0%);fill-opacity:1;" d="M 9.074219 18.792969 C 9.128906 18.828125 9.214844 18.871094 9.265625 18.886719 C 9.363281 18.914062 9.351562 18.90625 9.125 18.800781 C 8.984375 18.734375 8.984375 18.734375 9.074219 18.792969 Z M 9.074219 18.792969 "/>
<path style=" stroke:none;fill-rule:nonzero;fill:rgb(0%,0%,0%);fill-opacity:1;" d="M 8.351562 18.867188 C 8.351562 18.910156 8.359375 18.925781 8.375 18.898438 C 8.382812 18.875 8.382812 18.835938 8.375 18.820312 C 8.359375 18.800781 8.351562 18.820312 8.351562 18.867188 Z M 8.351562 18.867188 "/>
<path style=" stroke:none;fill-rule:nonzero;fill:rgb(0%,0%,0%);fill-opacity:1;" d="M 9.25 18.988281 C 9.25 19.023438 9.261719 19.039062 9.273438 19.019531 C 9.285156 19.003906 9.285156 18.96875 9.273438 18.953125 C 9.261719 18.9375 9.25 18.949219 9.25 18.988281 Z M 9.25 18.988281 "/>
<path style=" stroke:none;fill-rule:nonzero;fill:rgb(0%,0%,0%);fill-opacity:1;" d="M 9.535156 19 C 9.59375 19.039062 9.644531 19.066406 9.652344 19.066406 C 9.664062 19.066406 9.636719 19.039062 9.59375 19 C 9.550781 18.960938 9.496094 18.933594 9.472656 18.933594 C 9.449219 18.933594 9.480469 18.960938 9.535156 19 Z M 9.535156 19 "/>
<path style=" stroke:none;fill-rule:nonzero;fill:rgb(0%,0%,0%);fill-opacity:1;" d="M 8.398438 19.027344 C 8.398438 19.070312 8.40625 19.085938 8.421875 19.058594 C 8.429688 19.035156 8.429688 18.996094 8.421875 18.980469 C 8.40625 18.960938 8.398438 18.980469 8.398438 19.027344 Z M 8.398438 19.027344 "/>
<path style=" stroke:none;fill-rule:nonzero;fill:rgb(0%,0%,0%);fill-opacity:1;" d="M 9.316406 19.078125 C 9.273438 19.148438 9.285156 19.164062 9.339844 19.113281 C 9.371094 19.085938 9.382812 19.054688 9.371094 19.050781 C 9.359375 19.042969 9.335938 19.054688 9.316406 19.078125 Z M 9.316406 19.078125 "/>
<path style=" stroke:none;fill-rule:nonzero;fill:rgb(0%,0%,0%);fill-opacity:1;" d="M 9.199219 19.121094 C 9.199219 19.140625 9.21875 19.179688 9.242188 19.199219 C 9.296875 19.246094 9.296875 19.207031 9.242188 19.132812 C 9.214844 19.097656 9.199219 19.09375 9.199219 19.121094 Z M 9.199219 19.121094 "/>
<path style=" stroke:none;fill-rule:nonzero;fill:rgb(0%,0%,0%);fill-opacity:1;" d="M 9.828125 19.144531 C 9.847656 19.160156 9.90625 19.1875 9.960938 19.203125 C 10.03125 19.222656 10.046875 19.222656 10.027344 19.203125 C 10.007812 19.1875 9.953125 19.160156 9.894531 19.144531 C 9.824219 19.121094 9.808594 19.121094 9.828125 19.144531 Z M 9.828125 19.144531 "/>
<path style=" stroke:none;fill-rule:nonzero;fill:rgb(0%,0%,0%);fill-opacity:1;" d="M 8.449219 19.265625 C 8.449219 19.339844 8.460938 19.367188 8.46875 19.324219 C 8.480469 19.285156 8.480469 19.226562 8.46875 19.191406 C 8.460938 19.160156 8.449219 19.191406 8.449219 19.265625 Z M 8.449219 19.265625 "/>
<path style=" stroke:none;fill-rule:nonzero;fill:rgb(0%,0%,0%);fill-opacity:1;" d="M 9.148438 19.214844 C 9.148438 19.226562 9.171875 19.257812 9.195312 19.28125 C 9.21875 19.300781 9.242188 19.308594 9.242188 19.292969 C 9.242188 19.277344 9.21875 19.246094 9.195312 19.226562 C 9.171875 19.207031 9.148438 19.199219 9.148438 19.214844 Z M 9.148438 19.214844 "/>
<path style=" stroke:none;fill-rule:nonzero;fill:rgb(0%,0%,0%);fill-opacity:1;" d="M 9.082031 19.324219 C 9.050781 19.363281 9.058594 19.367188 9.105469 19.339844 C 9.136719 19.324219 9.152344 19.300781 9.136719 19.292969 C 9.125 19.285156 9.09375 19.296875 9.082031 19.324219 Z M 9.082031 19.324219 "/>
<path style=" stroke:none;fill-rule:nonzero;fill:rgb(0%,0%,0%);fill-opacity:1;" d="M 10.617188 19.386719 C 10.652344 19.398438 10.710938 19.414062 10.734375 19.414062 C 10.761719 19.414062 10.75 19.398438 10.710938 19.386719 C 10.671875 19.375 10.621094 19.359375 10.59375 19.359375 C 10.570312 19.359375 10.578125 19.375 10.617188 19.386719 Z M 10.617188 19.386719 "/>
<path style=" stroke:none;fill-rule:nonzero;fill:rgb(0%,0%,0%);fill-opacity:1;" d="M 10.804688 19.441406 C 10.804688 19.453125 10.828125 19.464844 10.859375 19.464844 C 10.882812 19.464844 10.890625 19.453125 10.875 19.441406 C 10.863281 19.425781 10.839844 19.414062 10.824219 19.414062 C 10.816406 19.414062 10.804688 19.425781 10.804688 19.441406 Z M 10.804688 19.441406 "/>
<path style=" stroke:none;fill-rule:nonzero;fill:rgb(0%,0%,0%);fill-opacity:1;" d="M 8.488281 19.484375 C 8.488281 19.511719 8.503906 19.519531 8.515625 19.5 C 8.53125 19.480469 8.527344 19.457031 8.511719 19.449219 C 8.496094 19.4375 8.484375 19.453125 8.488281 19.484375 Z M 8.488281 19.484375 "/>
<path style=" stroke:none;fill-rule:nonzero;fill:rgb(0%,0%,0%);fill-opacity:1;" d="M 9.066406 19.484375 C 9.050781 19.511719 9.027344 19.542969 9.015625 19.558594 C 9 19.570312 9.015625 19.574219 9.039062 19.566406 C 9.089844 19.546875 9.15625 19.441406 9.117188 19.441406 C 9.105469 19.441406 9.085938 19.460938 9.066406 19.484375 Z M 9.066406 19.484375 "/>
<path style=" stroke:none;fill-rule:nonzero;fill:rgb(0%,0%,0%);fill-opacity:1;" d="M 10.972656 19.492188 C 10.984375 19.507812 11.007812 19.519531 11.023438 19.519531 C 11.03125 19.519531 11.042969 19.507812 11.042969 19.492188 C 11.042969 19.476562 11.019531 19.464844 10.992188 19.464844 C 10.96875 19.464844 10.957031 19.476562 10.972656 19.492188 Z M 10.972656 19.492188 "/>
<path style=" stroke:none;fill-rule:nonzero;fill:rgb(0%,0%,0%);fill-opacity:1;" d="M 8.535156 19.589844 C 8.535156 19.617188 8.550781 19.625 8.5625 19.605469 C 8.578125 19.585938 8.574219 19.5625 8.558594 19.554688 C 8.546875 19.542969 8.53125 19.558594 8.535156 19.589844 Z M 8.535156 19.589844 "/>
<path style=" stroke:none;fill-rule:nonzero;fill:rgb(0%,0%,0%);fill-opacity:1;" d="M 11 19.589844 C 11 19.617188 11.015625 19.625 11.027344 19.605469 C 11.042969 19.585938 11.039062 19.5625 11.023438 19.554688 C 11.007812 19.542969 10.996094 19.558594 11 19.589844 Z M 11 19.589844 "/>
<path style=" stroke:none;fill-rule:nonzero;fill:rgb(0%,0%,0%);fill-opacity:1;" d="M 11.207031 19.601562 C 11.191406 19.617188 11.21875 19.625 11.292969 19.613281 C 11.363281 19.601562 11.472656 19.613281 11.558594 19.636719 C 11.640625 19.660156 11.707031 19.675781 11.707031 19.667969 C 11.707031 19.644531 11.425781 19.574219 11.332031 19.574219 C 11.28125 19.574219 11.222656 19.585938 11.207031 19.601562 Z M 11.207031 19.601562 "/>
<path style=" stroke:none;fill-rule:nonzero;fill:rgb(0%,0%,0%);fill-opacity:1;" d="M 8.839844 19.726562 C 8.539062 19.972656 8.546875 19.964844 8.644531 20.019531 C 8.730469 20.0625 8.730469 20.0625 8.667969 20.007812 C 8.617188 19.960938 8.621094 19.941406 8.6875 19.886719 C 8.925781 19.707031 9.019531 19.625 9 19.617188 C 8.992188 19.609375 8.917969 19.660156 8.839844 19.726562 Z M 8.839844 19.726562 "/>
<path style=" stroke:none;fill-rule:nonzero;fill:rgb(0%,0%,0%);fill-opacity:1;" d="M 22.339844 19.691406 C 22.222656 19.765625 22.179688 19.820312 22.15625 19.933594 C 22.109375 20.148438 22.148438 20.34375 22.269531 20.496094 C 22.859375 21.222656 23.140625 21.441406 23.777344 21.632812 C 24.082031 21.726562 24.097656 21.683594 23.820312 21.523438 C 23.40625 21.292969 23.292969 21.171875 23.292969 20.960938 C 23.292969 20.835938 23.316406 20.761719 23.378906 20.710938 C 23.484375 20.621094 23.488281 20.625 23.292969 20.570312 C 23.085938 20.515625 22.730469 20.316406 22.574219 20.167969 C 22.507812 20.105469 22.445312 19.996094 22.429688 19.90625 C 22.40625 19.777344 22.417969 19.742188 22.507812 19.675781 C 22.648438 19.566406 22.535156 19.578125 22.339844 19.691406 Z M 22.339844 19.691406 "/>
<path style=" stroke:none;fill-rule:nonzero;fill:rgb(0%,0%,0%);fill-opacity:1;" d="M 8.59375 19.691406 C 8.597656 19.71875 8.636719 19.746094 8.671875 19.753906 C 8.71875 19.761719 8.726562 19.757812 8.691406 19.742188 C 8.664062 19.730469 8.625 19.703125 8.613281 19.679688 C 8.585938 19.652344 8.582031 19.65625 8.59375 19.691406 Z M 8.59375 19.691406 "/>
<path style=" stroke:none;fill-rule:nonzero;fill:rgb(0%,0%,0%);fill-opacity:1;" d="M 11.09375 19.753906 C 11.066406 19.808594 11.042969 19.910156 11.042969 19.976562 C 11.042969 20.046875 11 20.152344 10.949219 20.214844 C 10.894531 20.28125 10.851562 20.355469 10.859375 20.386719 C 10.859375 20.503906 11.050781 20.132812 11.089844 19.945312 C 11.109375 19.835938 11.140625 19.726562 11.160156 19.699219 C 11.179688 19.675781 11.183594 19.652344 11.171875 19.652344 C 11.152344 19.652344 11.117188 19.699219 11.09375 19.753906 Z M 11.09375 19.753906 "/>
<path style=" stroke:none;fill-rule:nonzero;fill:rgb(0%,0%,0%);fill-opacity:1;" d="M 19.835938 19.703125 C 19.757812 19.734375 19.628906 19.785156 19.550781 19.828125 C 19.445312 19.878906 19.472656 19.875 19.644531 19.804688 C 19.777344 19.753906 19.925781 19.703125 19.976562 19.683594 C 20.027344 19.667969 20.050781 19.652344 20.023438 19.652344 C 20 19.652344 19.914062 19.675781 19.835938 19.703125 Z M 19.835938 19.703125 "/>
<path style=" stroke:none;fill-rule:nonzero;fill:rgb(0%,0%,0%);fill-opacity:1;" d="M 20.089844 19.699219 C 20.027344 19.742188 20.03125 19.742188 20.109375 19.710938 C 20.183594 19.675781 20.207031 19.652344 20.171875 19.652344 C 20.160156 19.652344 20.125 19.675781 20.089844 19.699219 Z M 20.089844 19.699219 "/>
<path style=" stroke:none;fill-rule:nonzero;fill:rgb(0%,0%,0%);fill-opacity:1;" d="M 10.953125 19.722656 C 10.953125 19.753906 10.96875 19.761719 10.980469 19.738281 C 10.996094 19.71875 10.992188 19.695312 10.976562 19.6875 C 10.960938 19.675781 10.949219 19.691406 10.953125 19.722656 Z M 10.953125 19.722656 "/>
<path style=" stroke:none;fill-rule:nonzero;fill:rgb(0%,0%,0%);fill-opacity:1;" d="M 12.085938 19.792969 C 12.085938 19.800781 12.140625 19.828125 12.207031 19.851562 C 12.28125 19.878906 12.316406 19.886719 12.304688 19.871094 C 12.269531 19.839844 12.085938 19.777344 12.085938 19.792969 Z M 12.085938 19.792969 "/>
<path style=" stroke:none;fill-rule:nonzero;fill:rgb(0%,0%,0%);fill-opacity:1;" d="M 19.6875 19.929688 C 19.394531 20.148438 19.21875 20.289062 19.347656 20.210938 C 19.574219 20.0625 19.914062 19.808594 19.894531 19.796875 C 19.886719 19.792969 19.792969 19.851562 19.6875 19.929688 Z M 19.6875 19.929688 "/>
<path style=" stroke:none;fill-rule:nonzero;fill:rgb(0%,0%,0%);fill-opacity:1;" d="M 2.164062 20.1875 C 2.09375 20.863281 2.089844 20.855469 2.460938 21.273438 C 2.640625 21.476562 2.835938 21.703125 2.894531 21.785156 C 3.082031 22.03125 3.050781 21.886719 2.828125 21.476562 C 2.507812 20.875 2.3125 20.394531 2.214844 19.945312 C 2.207031 19.910156 2.183594 20.019531 2.164062 20.1875 Z M 2.164062 20.1875 "/>
<path style=" stroke:none;fill-rule:nonzero;fill:rgb(0%,0%,0%);fill-opacity:1;" d="M 12.464844 19.929688 C 12.464844 19.9375 12.507812 19.957031 12.558594 19.972656 C 12.613281 19.988281 12.652344 19.996094 12.652344 19.988281 C 12.652344 19.980469 12.613281 19.960938 12.558594 19.945312 C 12.507812 19.929688 12.464844 19.925781 12.464844 19.929688 Z M 12.464844 19.929688 "/>
<path style=" stroke:none;fill-rule:nonzero;fill:rgb(0%,0%,0%);fill-opacity:1;" d="M 19.027344 20.070312 C 18.871094 20.15625 18.785156 20.207031 18.839844 20.191406 C 18.929688 20.164062 19.378906 19.921875 19.335938 19.921875 C 19.324219 19.921875 19.183594 19.988281 19.027344 20.070312 Z M 19.027344 20.070312 "/>
<path style=" stroke:none;fill-rule:nonzero;fill:rgb(0%,0%,0%);fill-opacity:1;" d="M 12.84375 20.054688 C 12.882812 20.066406 12.949219 20.078125 12.984375 20.078125 C 13.03125 20.078125 13.023438 20.070312 12.960938 20.054688 C 12.835938 20.019531 12.757812 20.019531 12.84375 20.054688 Z M 12.84375 20.054688 "/>
<path style=" stroke:none;fill-rule:nonzero;fill:rgb(0%,0%,0%);fill-opacity:1;" d="M 13.308594 20.191406 C 13.332031 20.382812 13.355469 20.398438 13.359375 20.230469 C 13.359375 20.148438 13.351562 20.078125 13.328125 20.078125 C 13.308594 20.078125 13.296875 20.128906 13.308594 20.191406 Z M 13.308594 20.191406 "/>
<path style=" stroke:none;fill-rule:nonzero;fill:rgb(0%,0%,0%);fill-opacity:1;" d="M 13.46875 20.339844 L 13.480469 20.601562 L 13.492188 20.359375 C 13.507812 20.214844 13.53125 20.113281 13.570312 20.101562 C 13.605469 20.089844 13.597656 20.078125 13.546875 20.078125 C 13.46875 20.078125 13.460938 20.105469 13.46875 20.339844 Z M 13.46875 20.339844 "/>
<path style=" stroke:none;fill-rule:nonzero;fill:rgb(0%,0%,0%);fill-opacity:1;" d="M 8.816406 20.1875 C 8.84375 20.214844 8.875 20.238281 8.890625 20.238281 C 8.902344 20.238281 8.890625 20.214844 8.863281 20.1875 C 8.835938 20.15625 8.800781 20.132812 8.785156 20.132812 C 8.777344 20.132812 8.785156 20.15625 8.816406 20.1875 Z M 8.816406 20.1875 "/>
<path style=" stroke:none;fill-rule:nonzero;fill:rgb(0%,0%,0%);fill-opacity:1;" d="M 10.644531 20.296875 C 10.605469 20.40625 10.644531 20.429688 10.6875 20.320312 C 10.707031 20.273438 10.710938 20.230469 10.695312 20.222656 C 10.6875 20.214844 10.664062 20.25 10.644531 20.296875 Z M 10.644531 20.296875 "/>
<path style=" stroke:none;fill-rule:nonzero;fill:rgb(0%,0%,0%);fill-opacity:1;" d="M 14.027344 20.222656 C 14.027344 20.230469 14.0625 20.242188 14.105469 20.25 C 14.140625 20.257812 14.160156 20.257812 14.148438 20.238281 C 14.117188 20.214844 14.027344 20.203125 14.027344 20.222656 Z M 14.027344 20.222656 "/>
<path style=" stroke:none;fill-rule:nonzero;fill:rgb(0%,0%,0%);fill-opacity:1;" d="M 18.601562 20.238281 C 18.585938 20.257812 18.605469 20.257812 18.644531 20.25 C 18.730469 20.230469 18.742188 20.214844 18.675781 20.214844 C 18.648438 20.214844 18.617188 20.222656 18.601562 20.238281 Z M 18.601562 20.238281 "/>
<path style=" stroke:none;fill-rule:nonzero;fill:rgb(0%,0%,0%);fill-opacity:1;" d="M 19.003906 20.453125 C 18.902344 20.542969 18.824219 20.613281 18.835938 20.613281 C 18.847656 20.613281 18.949219 20.542969 19.050781 20.453125 C 19.15625 20.367188 19.230469 20.292969 19.222656 20.292969 C 19.207031 20.292969 19.109375 20.367188 19.003906 20.453125 Z M 19.003906 20.453125 "/>
<path style=" stroke:none;fill-rule:nonzero;fill:rgb(0%,0%,0%);fill-opacity:1;" d="M 11.515625 20.386719 C 11.515625 20.40625 11.535156 20.425781 11.5625 20.425781 C 11.585938 20.425781 11.597656 20.40625 11.582031 20.386719 C 11.5625 20.367188 11.546875 20.347656 11.535156 20.347656 C 11.527344 20.347656 11.515625 20.367188 11.515625 20.386719 Z M 11.515625 20.386719 "/>
<path style=" stroke:none;fill-rule:nonzero;fill:rgb(0%,0%,0%);fill-opacity:1;" d="M 14.691406 20.375 C 14.730469 20.386719 14.796875 20.398438 14.835938 20.398438 C 14.882812 20.398438 14.871094 20.390625 14.808594 20.375 C 14.683594 20.339844 14.605469 20.339844 14.691406 20.375 Z M 14.691406 20.375 "/>
<path style=" stroke:none;fill-rule:nonzero;fill:rgb(0%,0%,0%);fill-opacity:1;" d="M 18.03125 20.375 C 17.980469 20.386719 17.96875 20.398438 17.996094 20.398438 C 18.039062 20.398438 18.046875 20.433594 18.039062 20.507812 C 18.027344 20.566406 18.039062 20.621094 18.0625 20.628906 C 18.085938 20.636719 18.105469 20.59375 18.105469 20.527344 C 18.105469 20.464844 18.128906 20.398438 18.160156 20.378906 C 18.226562 20.339844 18.171875 20.339844 18.03125 20.375 Z M 18.03125 20.375 "/>
<path style=" stroke:none;fill-rule:nonzero;fill:rgb(0%,0%,0%);fill-opacity:1;" d="M 28.140625 20.445312 C 28.417969 20.644531 28.449219 20.707031 28.460938 21.046875 L 28.464844 21.363281 L 28.628906 21.414062 C 28.863281 21.492188 29.003906 21.621094 29.066406 21.820312 C 29.109375 21.960938 29.105469 22.023438 29.03125 22.183594 C 28.941406 22.390625 28.953125 22.441406 29.066406 22.339844 C 29.269531 22.15625 29.289062 21.554688 29.105469 21.15625 C 29.019531 20.972656 28.828125 20.753906 28.6875 20.671875 C 28.652344 20.652344 28.625 20.625 28.625 20.613281 C 28.625 20.585938 28.113281 20.347656 28.046875 20.347656 C 28.023438 20.347656 28.066406 20.390625 28.140625 20.445312 Z M 28.140625 20.445312 "/>
<path style=" stroke:none;fill-rule:nonzero;fill:rgb(0%,0%,0%);fill-opacity:1;" d="M 14.96875 20.417969 C 15 20.425781 15.042969 20.425781 15.058594 20.414062 C 15.074219 20.40625 15.046875 20.398438 14.996094 20.402344 C 14.941406 20.402344 14.929688 20.410156 14.96875 20.417969 Z M 14.96875 20.417969 "/>
<path style=" stroke:none;fill-rule:nonzero;fill:rgb(0%,0%,0%);fill-opacity:1;" d="M 15.15625 20.445312 C 15.191406 20.453125 15.230469 20.449219 15.246094 20.441406 C 15.265625 20.433594 15.238281 20.425781 15.183594 20.429688 C 15.132812 20.429688 15.117188 20.4375 15.15625 20.445312 Z M 15.15625 20.445312 "/>
<path style=" stroke:none;fill-rule:nonzero;fill:rgb(0%,0%,0%);fill-opacity:1;" d="M 9.84375 20.484375 C 9.800781 20.496094 9.738281 20.5 9.714844 20.492188 C 9.691406 20.484375 9.683594 20.492188 9.695312 20.515625 C 9.714844 20.546875 9.753906 20.550781 9.871094 20.53125 C 9.957031 20.515625 10.027344 20.507812 10.03125 20.507812 C 10.042969 20.507812 10.046875 20.492188 10.046875 20.480469 C 10.046875 20.445312 9.953125 20.449219 9.84375 20.484375 Z M 9.84375 20.484375 "/>
<path style=" stroke:none;fill-rule:nonzero;fill:rgb(0%,0%,0%);fill-opacity:1;" d="M 10.808594 20.496094 C 10.808594 20.523438 10.824219 20.535156 10.839844 20.511719 C 10.851562 20.492188 10.847656 20.46875 10.835938 20.460938 C 10.820312 20.449219 10.804688 20.464844 10.808594 20.496094 Z M 10.808594 20.496094 "/>
<path style=" stroke:none;fill-rule:nonzero;fill:rgb(0%,0%,0%);fill-opacity:1;" d="M 16.339844 20.472656 C 16.375 20.480469 16.417969 20.476562 16.429688 20.46875 C 16.449219 20.460938 16.421875 20.453125 16.371094 20.457031 C 16.316406 20.457031 16.304688 20.464844 16.339844 20.472656 Z M 16.339844 20.472656 "/>
<path style=" stroke:none;fill-rule:nonzero;fill:rgb(0%,0%,0%);fill-opacity:1;" d="M 3.546875 20.609375 C 3.136719 20.851562 3.140625 20.84375 3.332031 21.113281 C 3.425781 21.242188 3.578125 21.464844 3.671875 21.613281 C 3.910156 21.980469 4.082031 22.214844 4.15625 22.28125 C 4.238281 22.347656 4.230469 22.320312 4.148438 22.121094 C 3.84375 21.40625 3.726562 20.988281 3.753906 20.691406 C 3.761719 20.574219 3.769531 20.480469 3.761719 20.480469 C 3.757812 20.480469 3.664062 20.535156 3.546875 20.609375 Z M 3.546875 20.609375 "/>
<path style=" stroke:none;fill-rule:nonzero;fill:rgb(0%,0%,0%);fill-opacity:1;" d="M 16.933594 20.5 C 17.003906 20.503906 17.109375 20.503906 17.171875 20.5 C 17.226562 20.492188 17.171875 20.488281 17.039062 20.488281 C 16.910156 20.488281 16.859375 20.492188 16.933594 20.5 Z M 16.933594 20.5 "/>
<path style=" stroke:none;fill-rule:nonzero;fill:rgb(0%,0%,0%);fill-opacity:1;" d="M 9.289062 20.53125 C 9.289062 20.542969 9.3125 20.566406 9.335938 20.574219 C 9.363281 20.582031 9.382812 20.578125 9.382812 20.5625 C 9.382812 20.550781 9.363281 20.527344 9.335938 20.519531 C 9.3125 20.511719 9.289062 20.515625 9.289062 20.53125 Z M 9.289062 20.53125 "/>
<path style=" stroke:none;fill-rule:nonzero;fill:rgb(0%,0%,0%);fill-opacity:1;" d="M 15.796875 20.667969 C 15.796875 20.761719 15.804688 20.800781 15.816406 20.753906 C 15.824219 20.707031 15.824219 20.625 15.816406 20.578125 C 15.804688 20.535156 15.796875 20.570312 15.796875 20.667969 Z M 15.796875 20.667969 "/>
<path style=" stroke:none;fill-rule:nonzero;fill:rgb(0%,0%,0%);fill-opacity:1;" d="M 15.9375 20.613281 C 15.9375 20.679688 15.949219 20.707031 15.957031 20.671875 C 15.96875 20.640625 15.96875 20.585938 15.957031 20.550781 C 15.949219 20.519531 15.9375 20.546875 15.9375 20.613281 Z M 15.9375 20.613281 "/>
<path style=" stroke:none;fill-rule:nonzero;fill:rgb(0%,0%,0%);fill-opacity:1;" d="M 9.148438 20.542969 C 9.148438 20.59375 9.738281 21.183594 9.84375 21.230469 C 9.886719 21.25 9.839844 21.195312 9.738281 21.105469 C 9.640625 21.019531 9.464844 20.851562 9.351562 20.734375 C 9.242188 20.617188 9.148438 20.53125 9.148438 20.542969 Z M 9.148438 20.542969 "/>
<path style=" stroke:none;fill-rule:nonzero;fill:rgb(0%,0%,0%);fill-opacity:1;" d="M 10.691406 20.710938 C 10.597656 20.898438 10.417969 21.207031 10.328125 21.324219 C 10.273438 21.398438 10.273438 21.417969 10.324219 21.445312 C 10.375 21.476562 10.378906 21.46875 10.351562 21.433594 C 10.316406 21.382812 10.511719 21.113281 10.5625 21.132812 C 10.582031 21.136719 10.628906 21.105469 10.675781 21.0625 C 10.75 20.996094 10.75 20.984375 10.6875 20.996094 C 10.59375 21.015625 10.597656 20.984375 10.710938 20.761719 C 10.761719 20.660156 10.796875 20.574219 10.785156 20.566406 C 10.777344 20.558594 10.734375 20.625 10.691406 20.710938 Z M 10.691406 20.710938 "/>
<path style=" stroke:none;fill-rule:nonzero;fill:rgb(0%,0%,0%);fill-opacity:1;" d="M 13.183594 20.660156 C 13.113281 20.785156 13.148438 20.804688 13.222656 20.679688 C 13.257812 20.625 13.269531 20.578125 13.261719 20.570312 C 13.246094 20.566406 13.214844 20.605469 13.183594 20.660156 Z M 13.183594 20.660156 "/>
<path style=" stroke:none;fill-rule:nonzero;fill:rgb(0%,0%,0%);fill-opacity:1;" d="M 9.414062 20.609375 C 9.382812 20.636719 9.425781 20.71875 9.464844 20.71875 C 9.511719 20.71875 9.667969 20.605469 9.640625 20.589844 C 9.625 20.582031 9.59375 20.59375 9.570312 20.621094 C 9.511719 20.675781 9.414062 20.683594 9.449219 20.625 C 9.480469 20.585938 9.453125 20.574219 9.414062 20.609375 Z M 9.414062 20.609375 "/>
<path style=" stroke:none;fill-rule:nonzero;fill:rgb(0%,0%,0%);fill-opacity:1;" d="M 10.480469 20.628906 C 10.480469 20.660156 10.492188 20.667969 10.507812 20.644531 C 10.519531 20.625 10.515625 20.601562 10.503906 20.59375 C 10.488281 20.585938 10.472656 20.601562 10.480469 20.628906 Z M 10.480469 20.628906 "/>
<path style=" stroke:none;fill-rule:nonzero;fill:rgb(0%,0%,0%);fill-opacity:1;" d="M 13.347656 20.71875 C 13.242188 20.871094 13.257812 20.894531 13.371094 20.75 C 13.421875 20.683594 13.453125 20.625 13.441406 20.621094 C 13.429688 20.617188 13.386719 20.660156 13.347656 20.71875 Z M 13.347656 20.71875 "/>
<path style=" stroke:none;fill-rule:nonzero;fill:rgb(0%,0%,0%);fill-opacity:1;" d="M 11.847656 20.667969 C 11.847656 20.683594 11.871094 20.6875 11.894531 20.679688 C 11.925781 20.671875 11.941406 20.660156 11.941406 20.652344 C 11.941406 20.644531 11.925781 20.640625 11.894531 20.640625 C 11.871094 20.640625 11.847656 20.652344 11.847656 20.667969 Z M 11.847656 20.667969 "/>
<path style=" stroke:none;fill-rule:nonzero;fill:rgb(0%,0%,0%);fill-opacity:1;" d="M 17.96875 20.683594 C 17.96875 20.710938 17.980469 20.71875 17.996094 20.699219 C 18.007812 20.679688 18.003906 20.65625 17.992188 20.648438 C 17.976562 20.636719 17.960938 20.652344 17.96875 20.683594 Z M 17.96875 20.683594 "/>
<path style=" stroke:none;fill-rule:nonzero;fill:rgb(0%,0%,0%);fill-opacity:1;" d="M 18.511719 20.820312 L 18.230469 21 L 18.511719 20.839844 C 18.667969 20.753906 18.808594 20.683594 18.828125 20.6875 C 18.851562 20.691406 18.859375 20.683594 18.839844 20.667969 C 18.824219 20.652344 18.804688 20.640625 18.800781 20.640625 C 18.796875 20.644531 18.667969 20.722656 18.511719 20.820312 Z M 18.511719 20.820312 "/>
<path style=" stroke:none;fill-rule:nonzero;fill:rgb(0%,0%,0%);fill-opacity:1;" d="M 18.085938 20.804688 C 18.070312 20.882812 18.042969 20.988281 18.027344 21.03125 C 18 21.136719 18.050781 21.144531 18.179688 21.058594 L 18.269531 21 L 18.15625 21.054688 C 18.066406 21.09375 18.046875 21.097656 18.066406 21.0625 C 18.105469 21.003906 18.164062 20.667969 18.140625 20.667969 C 18.128906 20.667969 18.105469 20.730469 18.085938 20.804688 Z M 18.085938 20.804688 "/>
<path style=" stroke:none;fill-rule:nonzero;fill:rgb(0%,0%,0%);fill-opacity:1;" d="M 10.429688 20.734375 C 10.429688 20.765625 10.445312 20.773438 10.460938 20.753906 C 10.472656 20.734375 10.46875 20.710938 10.453125 20.703125 C 10.441406 20.691406 10.425781 20.707031 10.429688 20.734375 Z M 10.429688 20.734375 "/>
<path style=" stroke:none;fill-rule:nonzero;fill:rgb(0%,0%,0%);fill-opacity:1;" d="M 15.886719 20.804688 C 15.882812 20.84375 15.863281 20.898438 15.847656 20.925781 C 15.824219 20.960938 15.828125 20.964844 15.871094 20.945312 C 15.90625 20.925781 15.925781 20.875 15.910156 20.824219 C 15.894531 20.75 15.890625 20.746094 15.886719 20.804688 Z M 15.886719 20.804688 "/>
<path style=" stroke:none;fill-rule:nonzero;fill:rgb(0%,0%,0%);fill-opacity:1;" d="M 17.925781 20.8125 C 17.925781 20.855469 17.933594 20.871094 17.949219 20.84375 C 17.957031 20.820312 17.957031 20.785156 17.949219 20.765625 C 17.933594 20.75 17.925781 20.769531 17.925781 20.8125 Z M 17.925781 20.8125 "/>
<path style=" stroke:none;fill-rule:nonzero;fill:rgb(0%,0%,0%);fill-opacity:1;" d="M 9.601562 20.8125 C 9.648438 20.835938 9.714844 20.851562 9.738281 20.851562 C 9.769531 20.851562 9.742188 20.835938 9.695312 20.8125 C 9.644531 20.792969 9.582031 20.773438 9.554688 20.773438 C 9.53125 20.773438 9.550781 20.792969 9.601562 20.8125 Z M 9.601562 20.8125 "/>
<path style=" stroke:none;fill-rule:nonzero;fill:rgb(0%,0%,0%);fill-opacity:1;" d="M 11.996094 20.816406 C 11.996094 20.84375 12.007812 20.851562 12.023438 20.832031 C 12.039062 20.8125 12.03125 20.789062 12.019531 20.78125 C 12.003906 20.769531 11.992188 20.785156 11.996094 20.816406 Z M 11.996094 20.816406 "/>
<path style=" stroke:none;fill-rule:nonzero;fill:rgb(0%,0%,0%);fill-opacity:1;" d="M 13.71875 20.800781 C 13.734375 20.8125 13.773438 20.828125 13.796875 20.828125 C 13.824219 20.828125 13.828125 20.8125 13.816406 20.800781 C 13.800781 20.785156 13.761719 20.773438 13.738281 20.773438 C 13.710938 20.773438 13.707031 20.785156 13.71875 20.800781 Z M 13.71875 20.800781 "/>
<path style=" stroke:none;fill-rule:nonzero;fill:rgb(0%,0%,0%);fill-opacity:1;" d="M 13.574219 20.992188 C 13.605469 21.179688 13.617188 21.1875 13.730469 21.160156 C 13.777344 21.148438 13.828125 21.136719 13.847656 21.136719 C 13.910156 21.128906 13.949219 21.09375 13.886719 21.09375 C 13.847656 21.09375 13.84375 21.082031 13.871094 21.058594 C 13.972656 20.988281 13.976562 20.9375 13.886719 20.953125 C 13.839844 20.960938 13.785156 20.949219 13.769531 20.929688 C 13.742188 20.910156 13.75 20.902344 13.78125 20.917969 C 13.816406 20.929688 13.863281 20.929688 13.890625 20.917969 C 13.957031 20.894531 13.761719 20.828125 13.628906 20.828125 C 13.550781 20.828125 13.546875 20.839844 13.574219 20.992188 Z M 13.574219 20.992188 "/>
<path style=" stroke:none;fill-rule:nonzero;fill:rgb(0%,0%,0%);fill-opacity:1;" d="M 25.875 20.84375 C 25.875 20.90625 26.21875 21.136719 26.4375 21.21875 C 26.757812 21.34375 26.808594 21.316406 26.492188 21.1875 C 26.359375 21.136719 26.183594 21.03125 26.105469 20.957031 C 25.972656 20.839844 25.875 20.792969 25.875 20.84375 Z M 25.875 20.84375 "/>
<path style=" stroke:none;fill-rule:nonzero;fill:rgb(0%,0%,0%);fill-opacity:1;" d="M 13.226562 20.898438 C 13.222656 20.914062 13.207031 20.953125 13.195312 20.980469 C 13.171875 21.023438 13.171875 21.023438 13.222656 20.980469 C 13.25 20.953125 13.265625 20.917969 13.25 20.898438 C 13.238281 20.875 13.226562 20.875 13.226562 20.898438 Z M 13.226562 20.898438 "/>
<path style=" stroke:none;fill-rule:nonzero;fill:rgb(0%,0%,0%);fill-opacity:1;" d="M 15.738281 20.949219 C 15.738281 20.980469 15.753906 20.988281 15.769531 20.964844 C 15.78125 20.945312 15.777344 20.921875 15.761719 20.914062 C 15.75 20.902344 15.734375 20.921875 15.738281 20.949219 Z M 15.738281 20.949219 "/>
<path style=" stroke:none;fill-rule:nonzero;fill:rgb(0%,0%,0%);fill-opacity:1;" d="M 17.871094 20.976562 C 17.871094 21.003906 17.886719 21.011719 17.902344 20.992188 C 17.914062 20.972656 17.910156 20.949219 17.894531 20.941406 C 17.882812 20.929688 17.867188 20.945312 17.871094 20.976562 Z M 17.871094 20.976562 "/>
<path style=" stroke:none;fill-rule:nonzero;fill:rgb(0%,0%,0%);fill-opacity:1;" d="M 15.796875 21.164062 C 15.761719 21.269531 15.726562 21.375 15.707031 21.402344 C 15.683594 21.441406 15.6875 21.445312 15.726562 21.414062 C 15.78125 21.371094 15.894531 21.054688 15.867188 21.011719 C 15.859375 20.996094 15.824219 21.0625 15.796875 21.164062 Z M 15.796875 21.164062 "/>
<path style=" stroke:none;fill-rule:nonzero;fill:rgb(0%,0%,0%);fill-opacity:1;" d="M 13.132812 21.082031 C 13.132812 21.113281 13.148438 21.121094 13.160156 21.097656 C 13.175781 21.078125 13.171875 21.054688 13.15625 21.046875 C 13.140625 21.039062 13.128906 21.054688 13.132812 21.082031 Z M 13.132812 21.082031 "/>
<path style=" stroke:none;fill-rule:nonzero;fill:rgb(0%,0%,0%);fill-opacity:1;" d="M 9.929688 21.09375 C 9.914062 21.105469 9.925781 21.121094 9.949219 21.121094 C 9.976562 21.121094 10 21.105469 10 21.09375 C 10 21.078125 9.992188 21.066406 9.980469 21.066406 C 9.96875 21.066406 9.941406 21.078125 9.929688 21.09375 Z M 9.929688 21.09375 "/>
<path style=" stroke:none;fill-rule:nonzero;fill:rgb(0%,0%,0%);fill-opacity:1;" d="M 17.824219 21.109375 C 17.824219 21.136719 17.839844 21.148438 17.851562 21.125 C 17.867188 21.105469 17.863281 21.082031 17.847656 21.074219 C 17.835938 21.0625 17.820312 21.078125 17.824219 21.109375 Z M 17.824219 21.109375 "/>
<path style=" stroke:none;fill-rule:nonzero;fill:rgb(0%,0%,0%);fill-opacity:1;" d="M 9.90625 21.175781 C 9.90625 21.1875 9.929688 21.195312 9.953125 21.1875 C 9.980469 21.179688 10 21.164062 10 21.15625 C 10 21.152344 9.980469 21.148438 9.953125 21.148438 C 9.929688 21.148438 9.90625 21.160156 9.90625 21.175781 Z M 9.90625 21.175781 "/>
<path style=" stroke:none;fill-rule:nonzero;fill:rgb(0%,0%,0%);fill-opacity:1;" d="M 17.777344 21.242188 C 17.777344 21.273438 17.792969 21.28125 17.804688 21.257812 C 17.820312 21.238281 17.816406 21.214844 17.800781 21.207031 C 17.785156 21.199219 17.773438 21.214844 17.777344 21.242188 Z M 17.777344 21.242188 "/>
<path style=" stroke:none;fill-rule:nonzero;fill:rgb(0%,0%,0%);fill-opacity:1;" d="M 13.039062 21.269531 C 13.039062 21.296875 13.050781 21.308594 13.066406 21.285156 C 13.082031 21.265625 13.074219 21.242188 13.0625 21.234375 C 13.046875 21.222656 13.03125 21.238281 13.039062 21.269531 Z M 13.039062 21.269531 "/>
<path style=" stroke:none;fill-rule:nonzero;fill:rgb(0%,0%,0%);fill-opacity:1;" d="M 16.257812 21.257812 C 16.257812 21.269531 16.296875 21.28125 16.351562 21.28125 C 16.402344 21.28125 16.445312 21.273438 16.445312 21.269531 C 16.445312 21.265625 16.402344 21.253906 16.351562 21.246094 C 16.296875 21.238281 16.257812 21.242188 16.257812 21.257812 Z M 16.257812 21.257812 "/>
<path style=" stroke:none;fill-rule:nonzero;fill:rgb(0%,0%,0%);fill-opacity:1;" d="M 13.757812 21.292969 C 13.757812 21.316406 13.78125 21.324219 13.804688 21.316406 C 13.835938 21.308594 13.917969 21.289062 14 21.277344 C 14.140625 21.257812 14.140625 21.257812 13.953125 21.257812 C 13.816406 21.253906 13.757812 21.265625 13.757812 21.292969 Z M 13.757812 21.292969 "/>
<path style=" stroke:none;fill-rule:nonzero;fill:rgb(0%,0%,0%);fill-opacity:1;" d="M 9.949219 21.3125 C 10.015625 21.363281 10.191406 21.378906 10.191406 21.332031 C 10.191406 21.320312 10.15625 21.316406 10.117188 21.324219 C 10.082031 21.332031 10.007812 21.324219 9.960938 21.304688 C 9.890625 21.269531 9.886719 21.273438 9.949219 21.3125 Z M 9.949219 21.3125 "/>
<path style=" stroke:none;fill-rule:nonzero;fill:rgb(0%,0%,0%);fill-opacity:1;" d="M 17.332031 21.480469 C 17.105469 21.574219 16.917969 21.660156 16.917969 21.667969 C 16.917969 21.675781 17.09375 21.609375 17.3125 21.515625 C 17.75 21.332031 17.800781 21.308594 17.769531 21.308594 C 17.753906 21.308594 17.554688 21.382812 17.332031 21.480469 Z M 17.332031 21.480469 "/>
<path style=" stroke:none;fill-rule:nonzero;fill:rgb(0%,0%,0%);fill-opacity:1;" d="M 12.925781 21.445312 C 12.824219 21.605469 12.785156 21.679688 12.808594 21.679688 C 12.84375 21.679688 13.039062 21.355469 13.015625 21.339844 C 13.003906 21.335938 12.96875 21.382812 12.925781 21.445312 Z M 12.925781 21.445312 "/>
<path style=" stroke:none;fill-rule:nonzero;fill:rgb(0%,0%,0%);fill-opacity:1;" d="M 10.460938 21.496094 C 10.492188 21.515625 10.53125 21.523438 10.546875 21.515625 C 10.558594 21.507812 10.535156 21.492188 10.488281 21.484375 C 10.421875 21.464844 10.417969 21.46875 10.460938 21.496094 Z M 10.460938 21.496094 "/>
<path style=" stroke:none;fill-rule:nonzero;fill:rgb(0%,0%,0%);fill-opacity:1;" d="M 15.503906 21.652344 C 15.386719 21.785156 15.355469 21.859375 15.371094 21.9375 L 15.386719 22.039062 L 15.394531 21.929688 C 15.398438 21.867188 15.46875 21.746094 15.550781 21.652344 C 15.628906 21.5625 15.6875 21.484375 15.675781 21.476562 C 15.667969 21.472656 15.585938 21.550781 15.503906 21.652344 Z M 15.503906 21.652344 "/>
<path style=" stroke:none;fill-rule:nonzero;fill:rgb(0%,0%,0%);fill-opacity:1;" d="M 10.640625 21.550781 C 10.671875 21.574219 11.042969 21.6875 11.042969 21.667969 C 11.042969 21.664062 10.949219 21.625 10.828125 21.589844 C 10.710938 21.554688 10.625 21.535156 10.640625 21.550781 Z M 10.640625 21.550781 "/>
<path style=" stroke:none;fill-rule:nonzero;fill:rgb(0%,0%,0%);fill-opacity:1;" d="M 28.007812 21.574219 C 27.917969 21.601562 27.761719 21.667969 27.660156 21.71875 C 27.402344 21.847656 27.128906 21.875 26.042969 21.875 C 25.070312 21.878906 25.03125 21.894531 25.773438 21.988281 C 26.09375 22.027344 26.152344 22.027344 26.625 21.988281 C 27.207031 21.9375 27.40625 21.894531 27.605469 21.789062 C 27.800781 21.683594 28.113281 21.601562 28.304688 21.601562 C 28.394531 21.601562 28.4375 21.589844 28.414062 21.574219 C 28.3125 21.523438 28.171875 21.523438 28.007812 21.574219 Z M 28.007812 21.574219 "/>
<path style=" stroke:none;fill-rule:nonzero;fill:rgb(0%,0%,0%);fill-opacity:1;" d="M 13.394531 21.585938 C 13.378906 21.609375 13.394531 21.625 13.4375 21.625 C 13.472656 21.625 13.507812 21.609375 13.507812 21.585938 C 13.507812 21.566406 13.488281 21.546875 13.464844 21.546875 C 13.441406 21.546875 13.414062 21.566406 13.394531 21.585938 Z M 13.394531 21.585938 "/>
<path style=" stroke:none;fill-rule:nonzero;fill:rgb(0%,0%,0%);fill-opacity:1;" d="M 15.359375 21.589844 C 15.359375 21.617188 15.375 21.625 15.386719 21.605469 C 15.402344 21.585938 15.398438 21.5625 15.382812 21.554688 C 15.371094 21.542969 15.355469 21.558594 15.359375 21.589844 Z M 15.359375 21.589844 "/>
<path style=" stroke:none;fill-rule:nonzero;fill:rgb(0%,0%,0%);fill-opacity:1;" d="M 6.148438 21.734375 C 5.875 22.101562 5.585938 22.875 5.496094 23.46875 C 5.453125 23.769531 5.453125 23.777344 5.601562 24.023438 C 5.820312 24.398438 6.183594 24.675781 6.984375 25.09375 C 7.070312 25.136719 7.105469 25.144531 7.085938 25.113281 C 7.066406 25.089844 7.027344 25.0625 6.996094 25.058594 C 6.90625 25.039062 6.363281 24.625 6.226562 24.476562 C 6.039062 24.265625 5.890625 24.023438 5.828125 23.8125 C 5.671875 23.3125 5.839844 22.402344 6.191406 21.804688 C 6.28125 21.65625 6.246094 21.605469 6.148438 21.734375 Z M 6.148438 21.734375 "/>
<path style=" stroke:none;fill-rule:nonzero;fill:rgb(0%,0%,0%);fill-opacity:1;" d="M 16.773438 21.726562 C 16.710938 21.769531 16.714844 21.769531 16.792969 21.734375 C 16.867188 21.703125 16.890625 21.679688 16.851562 21.679688 C 16.84375 21.679688 16.804688 21.703125 16.773438 21.726562 Z M 16.773438 21.726562 "/>
<path style=" stroke:none;fill-rule:nonzero;fill:rgb(0%,0%,0%);fill-opacity:1;" d="M 11.183594 21.71875 C 11.183594 21.726562 11.226562 21.742188 11.28125 21.761719 C 11.332031 21.777344 11.375 21.78125 11.375 21.777344 C 11.375 21.769531 11.332031 21.75 11.28125 21.734375 C 11.226562 21.71875 11.183594 21.710938 11.183594 21.71875 Z M 11.183594 21.71875 "/>
<path style=" stroke:none;fill-rule:nonzero;fill:rgb(0%,0%,0%);fill-opacity:1;" d="M 13.332031 21.726562 C 13.375 21.730469 13.441406 21.730469 13.472656 21.726562 C 13.503906 21.71875 13.46875 21.710938 13.386719 21.710938 C 13.3125 21.710938 13.285156 21.71875 13.332031 21.726562 Z M 13.332031 21.726562 "/>
<path style=" stroke:none;fill-rule:nonzero;fill:rgb(0%,0%,0%);fill-opacity:1;" d="M 15.242188 21.773438 C 15.226562 21.796875 15.214844 21.832031 15.21875 21.847656 C 15.21875 21.867188 15.242188 21.851562 15.265625 21.816406 C 15.289062 21.78125 15.304688 21.746094 15.289062 21.742188 C 15.28125 21.734375 15.261719 21.75 15.242188 21.773438 Z M 15.242188 21.773438 "/>
<path style=" stroke:none;fill-rule:nonzero;fill:rgb(0%,0%,0%);fill-opacity:1;" d="M 16.425781 21.851562 C 16.296875 21.902344 16.171875 21.957031 16.140625 21.976562 C 16.113281 21.992188 16.222656 21.957031 16.386719 21.894531 C 16.550781 21.835938 16.683594 21.777344 16.683594 21.773438 C 16.683594 21.753906 16.675781 21.753906 16.425781 21.851562 Z M 16.425781 21.851562 "/>
<path style=" stroke:none;fill-rule:nonzero;fill:rgb(0%,0%,0%);fill-opacity:1;" d="M 11.484375 21.835938 C 11.605469 21.910156 12.152344 22.058594 12.273438 22.046875 C 12.335938 22.046875 12.394531 22.019531 12.402344 22 C 12.421875 21.96875 12.417969 21.964844 12.378906 21.996094 C 12.308594 22.054688 12.0625 22.015625 11.707031 21.890625 C 11.535156 21.828125 11.4375 21.804688 11.484375 21.835938 Z M 11.484375 21.835938 "/>
<path style=" stroke:none;fill-rule:nonzero;fill:rgb(0%,0%,0%);fill-opacity:1;" d="M 11.867188 21.808594 C 11.882812 21.820312 11.867188 21.84375 11.839844 21.847656 C 11.796875 21.859375 11.792969 21.863281 11.835938 21.863281 C 11.914062 21.867188 11.953125 21.820312 11.890625 21.796875 C 11.859375 21.785156 11.847656 21.789062 11.867188 21.808594 Z M 11.867188 21.808594 "/>
<path style=" stroke:none;fill-rule:nonzero;fill:rgb(0%,0%,0%);fill-opacity:1;" d="M 12.628906 21.921875 C 12.539062 22.070312 12.574219 22.121094 12.753906 22.097656 C 12.859375 22.089844 12.859375 22.089844 12.738281 22.082031 C 12.585938 22.078125 12.582031 22.070312 12.675781 21.921875 C 12.714844 21.855469 12.738281 21.800781 12.730469 21.792969 C 12.71875 21.789062 12.671875 21.84375 12.628906 21.921875 Z M 12.628906 21.921875 "/>
<path style=" stroke:none;fill-rule:nonzero;fill:rgb(0%,0%,0%);fill-opacity:1;" d="M 15.171875 21.9375 C 15.171875 21.964844 15.183594 21.972656 15.199219 21.953125 C 15.214844 21.933594 15.207031 21.910156 15.195312 21.902344 C 15.179688 21.890625 15.164062 21.90625 15.171875 21.9375 Z M 15.171875 21.9375 "/>
<path style=" stroke:none;fill-rule:nonzero;fill:rgb(0%,0%,0%);fill-opacity:1;" d="M 15.125 22.042969 C 15.125 22.070312 15.136719 22.078125 15.152344 22.058594 C 15.164062 22.039062 15.160156 22.015625 15.148438 22.007812 C 15.132812 21.996094 15.117188 22.011719 15.125 22.042969 Z M 15.125 22.042969 "/>
<path style=" stroke:none;fill-rule:nonzero;fill:rgb(0%,0%,0%);fill-opacity:1;" d="M 15.816406 22.078125 C 15.53125 22.171875 15.464844 22.210938 15.710938 22.136719 C 15.894531 22.085938 16.113281 22 16.066406 22.003906 C 16.050781 22.003906 15.941406 22.039062 15.816406 22.078125 Z M 15.816406 22.078125 "/>
<path style=" stroke:none;fill-rule:nonzero;fill:rgb(0%,0%,0%);fill-opacity:1;" d="M 26.160156 22.128906 C 25.890625 22.257812 25.539062 22.34375 25.046875 22.414062 C 24.402344 22.507812 23.507812 22.566406 23.117188 22.550781 C 22.757812 22.53125 22.636719 22.570312 22.972656 22.597656 C 23.550781 22.640625 24.71875 22.558594 25.570312 22.410156 C 25.996094 22.335938 26.214844 22.265625 26.324219 22.15625 C 26.460938 22.027344 26.40625 22.019531 26.160156 22.128906 Z M 26.160156 22.128906 "/>
<path style=" stroke:none;fill-rule:nonzero;fill:rgb(0%,0%,0%);fill-opacity:1;" d="M 15.375 22.136719 C 15.375 22.171875 15.414062 22.199219 15.449219 22.207031 C 15.503906 22.214844 15.507812 22.210938 15.460938 22.191406 C 15.425781 22.179688 15.414062 22.148438 15.429688 22.125 C 15.445312 22.101562 15.441406 22.078125 15.414062 22.078125 C 15.386719 22.078125 15.371094 22.105469 15.375 22.136719 Z M 15.375 22.136719 "/>
<path style=" stroke:none;fill-rule:nonzero;fill:rgb(0%,0%,0%);fill-opacity:1;" d="M 12.976562 22.125 C 13.007812 22.132812 13.050781 22.128906 13.066406 22.121094 C 13.085938 22.113281 13.058594 22.105469 13.003906 22.109375 C 12.953125 22.109375 12.9375 22.117188 12.976562 22.125 Z M 12.976562 22.125 "/>
<path style=" stroke:none;fill-rule:nonzero;fill:rgb(0%,0%,0%);fill-opacity:1;" d="M 13.386719 22.175781 C 13.519531 22.195312 13.675781 22.210938 13.742188 22.210938 C 13.808594 22.210938 13.734375 22.191406 13.578125 22.171875 C 13.207031 22.125 13.085938 22.128906 13.386719 22.175781 Z M 13.386719 22.175781 "/>
<path style=" stroke:none;fill-rule:nonzero;fill:rgb(0%,0%,0%);fill-opacity:1;" d="M 15.074219 22.175781 C 15.074219 22.207031 15.089844 22.214844 15.105469 22.191406 C 15.117188 22.171875 15.113281 22.148438 15.097656 22.140625 C 15.085938 22.128906 15.070312 22.148438 15.074219 22.175781 Z M 15.074219 22.175781 "/>
<path style=" stroke:none;fill-rule:nonzero;fill:rgb(0%,0%,0%);fill-opacity:1;" d="M 14.304688 22.230469 C 14.359375 22.238281 14.445312 22.238281 14.492188 22.230469 C 14.535156 22.222656 14.488281 22.21875 14.382812 22.222656 C 14.28125 22.222656 14.242188 22.226562 14.304688 22.230469 Z M 14.304688 22.230469 "/>
<path style=" stroke:none;fill-rule:nonzero;fill:rgb(0%,0%,0%);fill-opacity:1;" d="M 22.25 22.703125 C 22.128906 22.777344 21.847656 23.003906 21.847656 23.03125 C 21.847656 23.039062 21.890625 23.019531 21.941406 22.984375 C 21.996094 22.949219 22.058594 22.90625 22.085938 22.886719 C 22.109375 22.871094 22.132812 22.847656 22.132812 22.839844 C 22.132812 22.832031 22.183594 22.792969 22.25 22.753906 C 22.316406 22.710938 22.371094 22.671875 22.371094 22.660156 C 22.371094 22.632812 22.359375 22.632812 22.25 22.703125 Z M 22.25 22.703125 "/>
<path style=" stroke:none;fill-rule:nonzero;fill:rgb(0%,0%,0%);fill-opacity:1;" d="M 21.707031 23.089844 C 21.707031 23.105469 21.730469 23.125 21.753906 23.132812 C 21.78125 23.140625 21.800781 23.136719 21.800781 23.121094 C 21.800781 23.109375 21.78125 23.089844 21.753906 23.078125 C 21.730469 23.070312 21.707031 23.074219 21.707031 23.089844 Z M 21.707031 23.089844 "/>
<path style=" stroke:none;fill-rule:nonzero;fill:rgb(0%,0%,0%);fill-opacity:1;" d="M 21.894531 23.214844 C 22.074219 23.332031 22.652344 23.988281 22.816406 24.253906 C 23.132812 24.765625 23.21875 25.171875 23.097656 25.621094 C 23.074219 25.710938 23.082031 25.730469 23.136719 25.71875 C 23.226562 25.699219 23.328125 25.765625 23.519531 25.980469 L 23.6875 26.164062 L 23.5625 26.148438 C 23.089844 26.089844 22.75 26.101562 22.75 26.171875 C 22.75 26.195312 22.875 26.328125 23.027344 26.472656 C 23.183594 26.617188 23.304688 26.738281 23.292969 26.742188 C 23.28125 26.75 23.171875 26.71875 23.046875 26.671875 C 22.804688 26.585938 22.328125 26.46875 22.09375 26.441406 C 21.976562 26.425781 21.933594 26.4375 21.828125 26.507812 C 21.695312 26.597656 21.671875 26.695312 21.753906 26.851562 C 21.777344 26.902344 21.792969 26.945312 21.785156 26.953125 C 21.761719 26.964844 21.089844 26.886719 20.757812 26.828125 C 19.980469 26.703125 19.160156 26.484375 18.644531 26.273438 C 18.503906 26.214844 18.332031 26.085938 17.925781 25.714844 C 17.816406 25.613281 17.644531 25.488281 17.550781 25.4375 C 17.347656 25.328125 17.335938 25.320312 17.816406 25.71875 C 18.027344 25.894531 18.199219 26.054688 18.199219 26.070312 C 18.199219 26.183594 18.820312 26.480469 19.382812 26.640625 C 19.554688 26.6875 19.972656 26.78125 20.308594 26.84375 C 20.808594 26.941406 21.007812 26.96875 21.382812 26.980469 L 21.84375 26.996094 L 21.871094 26.890625 C 21.933594 26.664062 21.960938 26.625 22.089844 26.617188 C 22.160156 26.613281 22.449219 26.652344 22.734375 26.703125 C 23.304688 26.808594 23.414062 26.820312 23.414062 26.761719 C 23.414062 26.742188 23.328125 26.625 23.222656 26.5 C 23.117188 26.375 23.03125 26.246094 23.03125 26.21875 C 23.03125 26.171875 23.058594 26.167969 23.261719 26.179688 C 23.382812 26.1875 23.554688 26.203125 23.640625 26.214844 C 23.785156 26.234375 23.792969 26.230469 23.761719 26.179688 C 23.75 26.148438 23.625 26.003906 23.496094 25.867188 L 23.261719 25.613281 L 23.246094 25.199219 C 23.238281 24.851562 23.21875 24.746094 23.109375 24.519531 C 22.859375 24 22.40625 23.457031 22.042969 23.246094 C 21.914062 23.171875 21.792969 23.144531 21.894531 23.214844 Z M 21.894531 23.214844 "/>
<path style=" stroke:none;fill-rule:nonzero;fill:rgb(0%,0%,0%);fill-opacity:1;" d="M 21.195312 23.394531 C 21.089844 23.453125 21.050781 23.5 21.070312 23.527344 C 21.105469 23.574219 21.230469 23.59375 21.230469 23.546875 C 21.230469 23.535156 21.296875 23.480469 21.375 23.433594 C 21.519531 23.335938 21.570312 23.277344 21.449219 23.332031 C 21.402344 23.351562 21.378906 23.355469 21.363281 23.332031 C 21.355469 23.316406 21.28125 23.34375 21.195312 23.394531 Z M 21.195312 23.394531 "/>
<path style=" stroke:none;fill-rule:nonzero;fill:rgb(0%,0%,0%);fill-opacity:1;" d="M 20.886719 23.59375 C 20.839844 23.621094 20.820312 23.652344 20.839844 23.664062 C 20.859375 23.675781 20.84375 23.675781 20.804688 23.667969 C 20.714844 23.652344 20.550781 23.71875 20.585938 23.757812 C 20.605469 23.769531 20.597656 23.789062 20.570312 23.800781 C 20.546875 23.808594 20.519531 23.804688 20.519531 23.792969 C 20.519531 23.777344 20.4375 23.8125 20.332031 23.871094 C 20.226562 23.925781 20.140625 23.996094 20.140625 24.019531 C 20.140625 24.089844 20.023438 24.144531 19.929688 24.121094 C 19.882812 24.113281 19.863281 24.117188 19.886719 24.136719 C 19.902344 24.152344 19.839844 24.199219 19.742188 24.246094 C 19.648438 24.289062 19.585938 24.335938 19.601562 24.351562 C 19.621094 24.367188 19.597656 24.375 19.53125 24.359375 C 19.449219 24.347656 19.4375 24.351562 19.464844 24.390625 C 19.492188 24.433594 19.484375 24.433594 19.421875 24.40625 C 19.382812 24.390625 19.335938 24.382812 19.324219 24.390625 C 19.304688 24.398438 19.289062 24.390625 19.289062 24.363281 C 19.289062 24.339844 19.308594 24.324219 19.335938 24.332031 C 19.359375 24.339844 19.449219 24.3125 19.535156 24.265625 L 19.691406 24.179688 L 19.539062 24.230469 C 19.453125 24.257812 19.382812 24.285156 19.382812 24.292969 C 19.382812 24.304688 19.355469 24.3125 19.328125 24.3125 C 19.292969 24.3125 19.085938 24.375 18.863281 24.441406 C 18.414062 24.589844 18.183594 24.648438 17.535156 24.789062 C 16.644531 24.980469 15.859375 25.054688 14.714844 25.050781 C 13.800781 25.046875 13.042969 24.980469 12.160156 24.8125 C 11.164062 24.625 10.074219 24.308594 9.574219 24.058594 C 9.484375 24.011719 9.375 23.972656 9.335938 23.976562 C 9.25 23.976562 9.816406 24.273438 10.171875 24.417969 L 10.421875 24.519531 L 10.398438 24.652344 C 10.335938 24.945312 10.152344 25.3125 9.960938 25.503906 C 9.84375 25.625 9.519531 25.847656 9.332031 25.9375 C 9.242188 25.980469 8.980469 26.074219 8.742188 26.144531 C 8.269531 26.289062 8.269531 26.289062 8.304688 26.308594 C 8.328125 26.324219 8.769531 26.199219 9.359375 26.003906 C 9.695312 25.894531 10.207031 25.695312 10.363281 25.609375 C 10.402344 25.589844 10.429688 25.40625 10.453125 25.070312 C 10.472656 24.789062 10.496094 24.558594 10.503906 24.558594 C 10.511719 24.558594 10.628906 24.601562 10.769531 24.652344 C 11.351562 24.859375 12.21875 25.054688 13.109375 25.171875 C 13.710938 25.257812 14.902344 25.335938 15.285156 25.320312 C 15.46875 25.316406 15.796875 25.300781 16.019531 25.292969 C 16.484375 25.277344 16.96875 25.230469 16.96875 25.199219 C 16.96875 25.1875 17.042969 25.171875 17.136719 25.164062 C 17.378906 25.136719 17.820312 25.039062 17.796875 25.011719 C 17.78125 25.003906 17.800781 24.996094 17.835938 24.996094 C 17.972656 25.003906 18.703125 24.804688 18.949219 24.6875 C 19.097656 24.617188 19.332031 24.519531 19.46875 24.464844 C 19.613281 24.410156 19.707031 24.355469 19.6875 24.339844 C 19.667969 24.324219 19.671875 24.320312 19.703125 24.328125 C 19.730469 24.339844 19.824219 24.308594 19.910156 24.257812 C 20 24.214844 20.140625 24.144531 20.226562 24.105469 C 20.472656 24 20.886719 23.777344 20.78125 23.8125 C 20.730469 23.824219 20.625 23.871094 20.554688 23.90625 C 20.480469 23.945312 20.40625 23.96875 20.394531 23.960938 C 20.375 23.953125 20.484375 23.886719 20.628906 23.8125 C 20.777344 23.734375 20.902344 23.660156 20.902344 23.640625 C 20.902344 23.621094 20.929688 23.601562 20.960938 23.59375 C 20.992188 23.585938 21.003906 23.574219 20.992188 23.5625 C 20.976562 23.554688 20.929688 23.566406 20.886719 23.59375 Z M 18.53125 24.785156 C 18.464844 24.808594 18.394531 24.824219 18.363281 24.824219 C 18.339844 24.824219 18.371094 24.808594 18.4375 24.785156 C 18.503906 24.765625 18.578125 24.75 18.601562 24.75 C 18.628906 24.75 18.597656 24.765625 18.53125 24.785156 Z M 17.535156 25 C 17.394531 25.046875 17.347656 25.046875 17.347656 25.015625 C 17.347656 24.988281 17.449219 24.96875 17.582031 24.964844 C 17.621094 24.960938 17.601562 24.980469 17.535156 25 Z M 17.535156 25 "/>
<path style=" stroke:none;fill-rule:nonzero;fill:rgb(0%,0%,0%);fill-opacity:1;" d="M 5.816406 24.941406 C 5.402344 25.28125 5.261719 25.394531 5.183594 25.441406 C 5.117188 25.484375 5.128906 25.488281 5.269531 25.5 C 5.355469 25.511719 5.605469 25.5 5.828125 25.484375 C 6.050781 25.464844 6.246094 25.449219 6.261719 25.457031 C 6.304688 25.46875 6.207031 25.789062 6.113281 25.941406 C 6.039062 26.070312 6.03125 26.078125 6.109375 26.070312 C 6.25 26.046875 7.164062 25.945312 7.246094 25.945312 C 7.335938 25.945312 7.796875 26.179688 7.949219 26.308594 C 8.003906 26.347656 8.0625 26.378906 8.082031 26.371094 C 8.117188 26.347656 7.753906 25.976562 7.570312 25.851562 C 7.445312 25.769531 7.421875 25.761719 7.21875 25.777344 C 7.097656 25.785156 6.808594 25.84375 6.578125 25.910156 C 6.074219 26.050781 6.074219 26.0625 6.484375 25.621094 C 6.703125 25.378906 6.734375 25.328125 6.683594 25.292969 C 6.644531 25.269531 6.585938 25.257812 6.546875 25.269531 C 6.398438 25.300781 5.847656 25.390625 5.71875 25.398438 C 5.644531 25.40625 5.515625 25.417969 5.4375 25.429688 C 5.292969 25.445312 5.296875 25.441406 5.59375 25.269531 C 5.90625 25.089844 6.039062 24.980469 6.113281 24.828125 C 6.191406 24.679688 6.082031 24.71875 5.816406 24.941406 Z M 5.816406 24.941406 "/>
<path style=" stroke:none;fill-rule:nonzero;fill:rgb(0%,0%,0%);fill-opacity:1;" d="M 29.46875 30.09375 C 29.265625 30.179688 29.257812 30.179688 28.996094 30.152344 C 28.742188 30.128906 28.710938 30.128906 28.558594 30.1875 C 28.46875 30.222656 28.40625 30.261719 28.421875 30.273438 C 28.4375 30.289062 28.378906 30.28125 28.304688 30.257812 C 28.117188 30.203125 27.847656 30.199219 27.753906 30.253906 C 27.707031 30.28125 27.601562 30.289062 27.378906 30.285156 C 27.195312 30.28125 27.09375 30.273438 27.136719 30.257812 C 27.230469 30.230469 27.21875 30.1875 27.125 30.203125 C 27.050781 30.214844 27.046875 30.214844 27.109375 30.1875 C 27.160156 30.167969 27.195312 30.171875 27.242188 30.207031 C 27.269531 30.230469 27.296875 30.238281 27.296875 30.222656 C 27.296875 30.15625 27.15625 30.125 26.914062 30.144531 C 26.707031 30.160156 26.671875 30.15625 26.695312 30.121094 C 26.714844 30.097656 26.707031 30.078125 26.675781 30.078125 C 26.652344 30.078125 26.621094 30.097656 26.605469 30.117188 C 26.570312 30.171875 26.472656 30.1875 26.324219 30.164062 C 26.21875 30.148438 26.160156 30.15625 26.085938 30.199219 C 26.027344 30.230469 25.90625 30.289062 25.808594 30.328125 C 25.636719 30.40625 25.582031 30.464844 25.71875 30.433594 C 25.769531 30.425781 25.742188 30.449219 25.660156 30.503906 C 25.53125 30.585938 25.519531 30.585938 25.488281 30.535156 C 25.46875 30.503906 25.421875 30.480469 25.386719 30.480469 C 25.324219 30.480469 25.199219 30.367188 25.195312 30.292969 C 25.191406 30.230469 24.992188 30.230469 24.933594 30.289062 C 24.871094 30.355469 24.984375 30.546875 25.097656 30.570312 C 25.136719 30.578125 25.164062 30.609375 25.164062 30.636719 C 25.164062 30.667969 25.214844 30.695312 25.273438 30.707031 C 25.414062 30.730469 25.398438 30.726562 25.601562 30.785156 C 25.769531 30.832031 25.777344 30.832031 25.933594 30.78125 C 26.027344 30.746094 26.125 30.734375 26.179688 30.742188 C 26.3125 30.773438 26.527344 30.746094 26.527344 30.703125 C 26.527344 30.660156 26.464844 30.652344 26.421875 30.691406 C 26.378906 30.734375 26.207031 30.726562 26.179688 30.679688 C 26.160156 30.660156 26.132812 30.648438 26.109375 30.65625 C 26.085938 30.664062 26.066406 30.652344 26.066406 30.632812 C 26.066406 30.617188 26.125 30.585938 26.191406 30.566406 C 26.292969 30.542969 26.304688 30.542969 26.25 30.574219 C 26.222656 30.597656 26.207031 30.621094 26.226562 30.632812 C 26.242188 30.640625 26.257812 30.632812 26.257812 30.617188 C 26.257812 30.597656 26.273438 30.589844 26.292969 30.597656 C 26.316406 30.605469 26.332031 30.574219 26.335938 30.523438 C 26.335938 30.476562 26.351562 30.40625 26.375 30.363281 C 26.40625 30.292969 26.402344 30.289062 26.296875 30.308594 L 26.183594 30.324219 L 26.304688 30.269531 C 26.441406 30.207031 26.53125 30.195312 26.445312 30.253906 C 26.355469 30.316406 26.464844 30.300781 26.5625 30.238281 C 26.664062 30.179688 26.871094 30.164062 26.78125 30.222656 C 26.738281 30.253906 26.738281 30.265625 26.785156 30.277344 C 26.820312 30.285156 26.800781 30.285156 26.742188 30.28125 C 26.671875 30.269531 26.621094 30.285156 26.550781 30.339844 C 26.441406 30.425781 26.382812 30.585938 26.472656 30.566406 C 26.507812 30.5625 26.527344 30.574219 26.527344 30.59375 C 26.519531 30.609375 26.539062 30.628906 26.5625 30.628906 C 26.59375 30.632812 26.605469 30.625 26.597656 30.609375 C 26.59375 30.59375 26.605469 30.589844 26.636719 30.601562 C 26.660156 30.609375 26.683594 30.601562 26.683594 30.582031 C 26.6875 30.53125 26.910156 30.382812 26.949219 30.40625 C 26.96875 30.417969 26.917969 30.476562 26.839844 30.542969 C 26.757812 30.601562 26.691406 30.664062 26.6875 30.679688 C 26.683594 30.691406 26.648438 30.703125 26.613281 30.699219 C 26.578125 30.695312 26.554688 30.707031 26.558594 30.726562 C 26.574219 30.792969 26.648438 30.832031 26.730469 30.820312 C 26.777344 30.8125 26.875 30.828125 26.953125 30.855469 C 27.023438 30.882812 27.132812 30.90625 27.195312 30.90625 C 27.25 30.90625 27.296875 30.917969 27.296875 30.933594 C 27.296875 30.964844 27.71875 30.96875 27.804688 30.9375 C 27.839844 30.925781 27.871094 30.886719 27.875 30.84375 C 27.886719 30.792969 27.902344 30.785156 27.949219 30.804688 C 28.027344 30.839844 28.152344 30.8125 28.152344 30.761719 C 28.152344 30.726562 28.179688 30.71875 28.246094 30.734375 C 28.304688 30.742188 28.375 30.734375 28.414062 30.71875 C 28.464844 30.695312 28.484375 30.695312 28.484375 30.71875 C 28.484375 30.734375 28.558594 30.742188 28.6875 30.742188 C 28.871094 30.734375 28.890625 30.726562 28.871094 30.671875 L 28.847656 30.609375 L 28.730469 30.671875 L 28.605469 30.734375 L 28.683594 30.667969 C 28.71875 30.628906 28.785156 30.601562 28.820312 30.601562 C 28.859375 30.601562 28.941406 30.566406 29.015625 30.523438 C 29.089844 30.484375 29.171875 30.460938 29.214844 30.46875 C 29.296875 30.488281 29.316406 30.535156 29.242188 30.535156 C 29.21875 30.535156 29.195312 30.519531 29.195312 30.5 C 29.195312 30.460938 29.125 30.5 29.125 30.542969 C 29.117188 30.558594 29.09375 30.570312 29.0625 30.566406 C 29 30.558594 28.957031 30.644531 28.972656 30.757812 C 28.976562 30.8125 29.019531 30.84375 29.128906 30.878906 C 29.207031 30.902344 29.363281 30.964844 29.480469 31.019531 C 29.585938 31.070312 29.738281 31.125 29.816406 31.132812 C 29.890625 31.144531 29.960938 31.164062 29.976562 31.175781 C 30.027344 31.222656 30.183594 31.199219 30.3125 31.132812 C 30.40625 31.082031 30.425781 31.058594 30.386719 31.03125 C 30.359375 31.011719 30.347656 30.972656 30.359375 30.945312 C 30.375 30.917969 30.359375 30.792969 30.332031 30.667969 C 30.304688 30.542969 30.28125 30.417969 30.28125 30.394531 C 30.28125 30.367188 30.242188 30.332031 30.199219 30.316406 C 30.15625 30.296875 30.113281 30.246094 30.109375 30.203125 C 30.097656 30.125 29.972656 30.054688 29.777344 30.019531 C 29.695312 30.011719 29.617188 30.03125 29.46875 30.09375 Z M 29.042969 30.375 C 29.007812 30.386719 28.96875 30.382812 28.949219 30.367188 C 28.894531 30.316406 28.957031 30.289062 29.03125 30.324219 C 29.089844 30.347656 29.089844 30.359375 29.042969 30.375 Z M 25.15625 30.375 C 25.214844 30.425781 25.214844 30.429688 25.109375 30.414062 C 24.972656 30.390625 24.960938 30.382812 25 30.347656 C 25.042969 30.308594 25.089844 30.316406 25.15625 30.375 Z M 26.164062 30.390625 C 26.082031 30.484375 25.726562 30.691406 25.660156 30.691406 C 25.558594 30.691406 25.578125 30.644531 25.6875 30.625 C 25.734375 30.617188 25.867188 30.550781 25.972656 30.476562 C 26.175781 30.339844 26.246094 30.3125 26.164062 30.390625 Z M 28.847656 30.398438 C 28.890625 30.410156 28.863281 30.457031 28.734375 30.574219 C 28.640625 30.660156 28.550781 30.714844 28.539062 30.695312 C 28.53125 30.679688 28.539062 30.644531 28.558594 30.617188 C 28.578125 30.59375 28.585938 30.566406 28.585938 30.554688 C 28.582031 30.542969 28.601562 30.535156 28.636719 30.542969 C 28.730469 30.550781 28.738281 30.445312 28.644531 30.40625 C 28.539062 30.367188 28.464844 30.363281 28.511719 30.40625 C 28.53125 30.425781 28.527344 30.425781 28.488281 30.414062 C 28.324219 30.355469 28.660156 30.339844 28.847656 30.398438 Z M 29.460938 30.433594 C 29.363281 30.460938 29.25 30.429688 29.339844 30.398438 C 29.371094 30.386719 29.429688 30.382812 29.46875 30.390625 C 29.527344 30.40625 29.527344 30.410156 29.460938 30.433594 Z M 27.105469 30.585938 C 26.949219 30.730469 26.871094 30.769531 26.871094 30.710938 C 26.871094 30.664062 27.140625 30.453125 27.203125 30.453125 C 27.226562 30.453125 27.183594 30.511719 27.105469 30.585938 Z M 27.40625 30.507812 C 27.386719 30.542969 27.363281 30.554688 27.335938 30.539062 C 27.285156 30.507812 27.324219 30.453125 27.394531 30.453125 C 27.414062 30.453125 27.421875 30.476562 27.40625 30.507812 Z M 27.714844 30.484375 C 27.582031 30.550781 27.414062 30.722656 27.527344 30.683594 C 27.546875 30.675781 27.5625 30.691406 27.5625 30.71875 C 27.5625 30.761719 27.546875 30.761719 27.480469 30.742188 C 27.429688 30.730469 27.394531 30.695312 27.394531 30.667969 C 27.394531 30.601562 27.617188 30.453125 27.714844 30.453125 C 27.78125 30.453125 27.78125 30.457031 27.714844 30.484375 Z M 28.027344 30.484375 C 28.003906 30.503906 27.941406 30.558594 27.882812 30.609375 C 27.824219 30.660156 27.785156 30.710938 27.804688 30.730469 C 27.824219 30.75 27.808594 30.75 27.773438 30.726562 C 27.671875 30.675781 27.851562 30.453125 27.996094 30.453125 C 28.039062 30.453125 28.046875 30.464844 28.027344 30.484375 Z M 28.324219 30.503906 C 28.28125 30.53125 28.222656 30.585938 28.203125 30.628906 C 28.164062 30.71875 28.058594 30.746094 28.058594 30.671875 C 28.058594 30.621094 28.292969 30.453125 28.371094 30.453125 C 28.386719 30.453125 28.363281 30.476562 28.324219 30.503906 Z M 28.578125 30.480469 C 28.578125 30.492188 28.558594 30.507812 28.53125 30.507812 C 28.507812 30.507812 28.484375 30.492188 28.484375 30.480469 C 28.484375 30.464844 28.507812 30.453125 28.53125 30.453125 C 28.558594 30.453125 28.578125 30.464844 28.578125 30.480469 Z M 29.507812 30.476562 C 29.488281 30.492188 29.492188 30.507812 29.511719 30.515625 C 29.535156 30.519531 29.527344 30.523438 29.496094 30.515625 C 29.46875 30.515625 29.386719 30.5625 29.316406 30.621094 C 29.199219 30.71875 29.183594 30.726562 29.214844 30.660156 C 29.238281 30.601562 29.230469 30.585938 29.191406 30.601562 C 29.152344 30.613281 29.148438 30.609375 29.164062 30.589844 C 29.183594 30.574219 29.222656 30.566406 29.246094 30.574219 C 29.269531 30.585938 29.289062 30.578125 29.289062 30.5625 C 29.289062 30.53125 29.425781 30.453125 29.484375 30.453125 C 29.511719 30.453125 29.519531 30.464844 29.507812 30.476562 Z M 25.382812 30.621094 C 25.449219 30.703125 25.449219 30.703125 25.378906 30.652344 C 25.261719 30.574219 25.195312 30.496094 25.257812 30.515625 C 25.285156 30.527344 25.339844 30.574219 25.382812 30.621094 Z M 29.835938 30.582031 C 29.796875 30.601562 29.714844 30.554688 29.742188 30.527344 C 29.761719 30.511719 29.785156 30.515625 29.816406 30.535156 C 29.835938 30.554688 29.84375 30.574219 29.835938 30.582031 Z M 29.644531 30.855469 C 29.695312 30.902344 29.652344 30.902344 29.554688 30.863281 C 29.472656 30.832031 29.472656 30.828125 29.535156 30.828125 C 29.578125 30.828125 29.628906 30.839844 29.644531 30.855469 Z M 29.929688 30.851562 C 29.941406 30.867188 29.925781 30.878906 29.886719 30.878906 C 29.84375 30.878906 29.808594 30.867188 29.808594 30.851562 C 29.808594 30.835938 29.828125 30.828125 29.851562 30.828125 C 29.882812 30.828125 29.914062 30.835938 29.929688 30.851562 Z M 29.929688 30.851562 "/>
</g>
</svg>
